<?xml version="1.0" encoding="UTF-8"?>
<svg id="Laag_1" xmlns="http://www.w3.org/2000/svg" version="1.1" viewBox="0 0 261.4 261.4">
  <!-- Generator: Adobe Illustrator 30.2.1, SVG Export Plug-In . SVG Version: 2.1.1 Build 1)  -->
  <defs>
    <style>
      .st0 {
        fill: #fdd784;
      }

      .st1 {
        fill: #505060;
      }

      .st2 {
        fill: #2c2b32;
      }

      .st3 {
        fill: #3a3a43;
      }

      .st4 {
        fill: #36383b;
      }

      .st5 {
        fill: #facf80;
      }

      .st6 {
        fill: #3c3834;
      }

      .st7 {
        fill: #424144;
      }

      .st8 {
        fill: #ff9e45;
      }

      .st9 {
        fill: #56433e;
      }

      .st10 {
        fill: #3a3a42;
      }

      .st11 {
        fill: #f27646;
      }

      .st12 {
        fill: #2f2e38;
      }

      .st13 {
        fill: #535262;
      }

      .st14 {
        fill: #fcd581;
      }

      .st15 {
        fill: #ffc74b;
      }

      .st16 {
        fill: #515365;
      }

      .st17 {
        fill: #f4bc6c;
      }

      .st18 {
        fill: #f7c16b;
      }

      .st19 {
        fill: #f5bc6c;
      }

      .st20 {
        fill: #f0ba6c;
      }

      .st21 {
        fill: #ffde92;
      }

      .st22 {
        fill: #f7be67;
      }

      .st23 {
        fill: #525161;
      }

      .st24 {
        fill: #765953;
      }

      .st25 {
        fill: #1e1d1e;
      }

      .st26 {
        fill: #50525f;
      }

      .st27 {
        fill: #f0bd6d;
      }

      .st28 {
        fill: #545463;
      }

      .st29 {
        fill: #212128;
      }

      .st30 {
        fill: #fcd685;
      }

      .st31 {
        fill: #34353f;
      }

      .st32 {
        fill: #3c3c45;
      }

      .st33 {
        fill: #565762;
      }

      .st34 {
        fill: #795c57;
      }

      .st35 {
        fill: #555561;
      }

      .st36 {
        fill: #fbd484;
      }

      .st37 {
        fill: #35363f;
      }

      .st38 {
        fill: #110f16;
      }

      .st39 {
        fill: #252526;
      }

      .st40 {
        fill: #57423d;
      }

      .st41 {
        fill: #745853;
      }

      .st42 {
        fill: #1c1b22;
      }

      .st43 {
        fill: #52535f;
      }

      .st44 {
        fill: #383944;
      }

      .st45 {
        fill: #212127;
      }

      .st46 {
        fill: #302f38;
      }

      .st47 {
        fill: #36363d;
      }

      .st48 {
        fill: #564340;
      }

      .st49 {
        fill: #1d1b21;
      }

      .st50 {
        fill: #fdd480;
      }
    </style>
  </defs>
  <g id="Tree">
    <path class="st11" d="M109.7,23.2c-49.9-62.7-241.1-63.7-248.3-62.8-100.4,12-120.5-55.7-233.7,6.5-21.9,12-18.9,130.5,42,111.4,60.8-19,53.5,23.6,109.5,42.6,56,19,76.7,36.3,120.5,4.9,43.8-31.4,92.7,30.5,124.7,37.7,32,7.2,28,3.6,48.7,11.5s84.6,33.3,84.6,33.3c0,0,57.3,10.9,61.5-48.1,6.1-86.8-59.6-74.3-109.5-137.1h0Z"/>
    <path class="st8" d="M67.1,74.6c-43.5,3.7-138.8,28.4-149.1-59-3.1-26.5-118.7-68.3,56-48.6,15.7,1.8,23.7,0,54.2,0s5.3,0,7.6.3c35.7,2.8,26.3,26.4,61.2,41.8,34.4,15.2,78.3,48.2,103.8,82.4,2,2.7,3.9,5.5,5.7,8.2,32.8,50.3,23.3,80.8-7.9,101v-19.6c.1-62.5-59.3-112.1-128.7-106.8-.9,0-1.8.1-2.8.2h0Z"/>
    <path class="st8" d="M270.5-25.8c-16.7-12.4-93.7-27.9-180.1-45.3-49.9-10.1-98.6,15.5-104.1,23.5C-26-29.9,60.7-29.7,69,14.1c8.3,43.8,105.4,58.1,174.8,83.6,28.6,10.6,48.4,7.8,61.8,1,16.1-8.2,25.5-24,24.9-40.6-2.8-74.8-31.4-62.5-60-83.8Z"/>
    <path class="st11" d="M-121-72.9C237.5-44.6,39.6,110.7,269.7-17.7c63.6-35.5-62.7-60-66.7-123.7-4-63.8,45.6-103.4-62.2-139.3-21.8-7.2,10-18.8-70.2-37.9-80.2-19-110.6-14.6-160.4-19-49.8-4.5-186.7,95.8-198.3,122.1-11.6,26.3-147,98.7-9.2,149.2,97,35.5,49.3-16.6,176.3-6.6h0Z"/>
    <path class="st11" d="M-7.5-11.9c-86.9,31.6-123.7-11.8-190.4,17.4-66.7,29.1-139.2-73-106.8-115.4,32.4-42.4,64.3,5.9,93.4-8.5,29.1-14.4,107.6-9.7,139.9,34C68.1-126.3,97.4-50.1-7.5-11.9Z"/>
    <path class="st8" d="M147.7-159.6c-6.2-3.3-33.2-68.8-72.6-108.1-39.4-39.3-83.3-89.8-170.4-76.7-87.1,13.1-174.9,76.5-189.5,128.9-15.9,57.3,116.2-46.4,285.6,9.8,45.2,15,70.1,44.3,78.8,92.3,6,32.7,50.5,60.6,46.1,82.9-11.6,58.7,119.9,58.5,155.1,7.2,7.1-10.3-126.9-133-133.1-136.3Z"/>
    <path class="st48" d="M-107.6-99.5c6.6,19.3,13.4,38.5,21.3,57.4-4.9-2.6-6.6-7.7-9.2-11.9-3.7-6.6-9-12.3-12.2-19.2-3.2-6.7-6.4-13.4-9.4-20.2,2.8.3,5.6.7,8.4,1.1.4-2.4.8-4.9,1.1-7.3M31.6,67.7c11.7-6.7,21.8-15.4,31-24.7-2.4,6-6.8,11.2-12.3,15.2-10.2,7.5-21.2,14.1-32.5,20.1,3.1-4.8,9.1-7.2,13.8-10.7M-130.6,55.5h0c2.2,1.1,4.5,2.2,6.3,3.9,8,7.2,15.9,14.5,23.4,22.1,7,7.5,14.9,14.1,21.4,21.9,6.4,7.6,14.8,14.1,19.6,22.8-15-10.5-25.8-24.7-38.4-37.3-10.1-9.3-19.1-19.5-29.7-28.4-1-1.6-1.8-3.3-2.6-5h0Z"/>
    <path class="st40" d="M202.3-3.5c5.8-3.8,5.5-3.3,9.7-6.1-2.4,0-3.5.4-5.7,1.3-7.5,2.7-15.3,5-22.3,8.9-11.7,6.4-21.4,15.2-32.9,21.9-6,3.9-12.6,7-17.7,11.8,5.9-.3,12-.7,17.5-2.7,11.5-9.6,23.5-18.8,36.3-27,6.6-4.2,7.9-4.8,15.1-8Z"/>
    <path class="st40" d="M27.5,222.9c1.1,9.6,3.6,19.1,6.4,28.4,1.5,4.7,3.5,9.8,8.5,12.4,4.5-3.6,5.4-9.2,5.6-14.3,0-9.5-3-18.8-6.9-27.6-1.9-4-5.1-8.3-10.1-9.3-4,2-3.4,6.9-3.5,10.4h0Z"/>
    <path class="st24" d="M-60.7,61.8h0c8.8,21.7,15.4,44.1,25.3,65.4,10.3,18.4,21.2,36.6,30.7,55.4,2.4,4.7,4.1,9.7,7.1,14.2-1.8-11.1-7.1-21.4-12.3-31.5-6.5-12.3-13.3-24.5-20.3-36.6-12.2-26.5-20.8-54.1-31.4-81.1-2.5-5.5-4.4-11.2-6.5-16.8-1,10.8,4.4,20.9,7.3,31.1h0Z"/>
    <path class="st34" d="M53.8,65c5.3-2.1,11.3-4.1,15.1-8.3-5.3,2.1-11.5,4-15.1,8.3h0Z"/>
    <path class="st24" d="M46.8,279.4c5.7-5.1,8.2-12.4,9.7-19.4,2.5-11.4-1.5-22.9-5.6-33.6-4-9.1-8.2-19.2-17.7-24.9-3.1-1.7-6.4-4.4-10.3-3.5-5.8,1.8-6.2,8.2-6.5,12.8.3,12.8,3.3,25.4,5.5,38.1,2,9.5,3.9,19.2,9.1,27.8,1.6,2.4,3.4,5.1,6.5,6.1,3.6.8,6.8-1.4,9.3-3.4h0ZM41.1,221.7c3.9,8.8,6.9,18.1,6.9,27.6-.2,5.1-1.1,10.7-5.6,14.3-5-2.5-7-7.7-8.5-12.4-2.7-9.3-5.2-18.8-6.4-28.4,0-3.5-.5-8.4,3.5-10.4,5,1,8.2,5.3,10.1,9.3h0Z"/>
    <path class="st34" d="M37.2,73.8h0c-1.5,1.2-3.9,2.1-4.1,4.1,3.5-.3,5.7-3.1,8.5-4.7,3.6-2.8,8.7-4.4,11.3-8.2-5.7,2.3-10.6,5.8-15.7,8.9h0Z"/>
    <path class="st34" d="M4.5,89.1c5.2-2.7,10.1-6.4,13.4-11-5.5,2.3-10,6.5-13.4,11h0Z"/>
    <path class="st34" d="M21.9,86.7c4.1-1.6,8.3-4.5,10.2-8.1-4.5,1.1-7.8,4.8-10.2,8.1h0Z"/>
    <path class="st34" d="M-49,145.6h0c1.3,3.3,4.2,5.6,6.6,8.3,5.8,6.3,10.5,13.4,14.7,20.7,9.1,15.8,17.1,32.3,21.8,49.6,6.9,24.2,11.7,49.4,7.3,74.3-.8,5.5-3.1,10.8-3.3,16.5,2.5-1.3,2.9-4.1,3.9-6.3,6.8-19.5,5.9-40.4,2.3-60.3-3.5-22.5-11.4-44.3-21.7-65-5.2-10.7-12.9-20.2-21-29.3-3.2-3.1-6.1-6.7-10.5-8.5h0Z"/>
    <path class="st15" d="M312-9.5c31.3,38.8,10.6,75.2,11.4,44.3.6-24.6-23.6-13-28-19.1C238.7-62.7,194.8-3.2,107.1-76c-32.6-27-19.2-53.8-12.4-60.9,6.2-6.4,28.5-10.1,63.1,9.1,55.4,30.6,93,39.3,98.1,70.3,3,18.4,39.6,27.5,56.2,48Z"/>
    <path class="st24" d="M46.9,310c-1.1-4.9-4.4-10.6-2.7-20.9-4,.7-8.7,2.5-12.3-.2-4.9-3.8-7-9.5-8.8-14.9-3.9-12.6-5.4-25.6-7.8-38.4-1.6-11.1-5-22.3-2.7-33.6.7-3,1.4-6.3,3.9-8.6,4.1-2.6,9.4-1.4,14-1.1-4.8-4.8-10-9.1-14.9-13.7-6.9-6.6-11.2-15-14.4-23.4-3.8,3.1-7.5,6.4-11,9.9,5.1,10.1,10.5,20.4,12.3,31.5-3-4.5-4.8-9.4-7.1-14.2-9.5-18.8-20.4-37-30.7-55.4-9.9-21.3-16.5-43.8-25.3-65.4-.7,2.3-1.3,4.8-2.8,6.8-2.6.4-5.3.2-8,0-.7.9-1,1.2-1.8,2.1,2,8.6,4.2,17.2,6.8,25.6,1.1,3.8,2.6,7.6,2,11.5-3.2-7.8-8.3-14.7-12.3-22.2-.6-1-1.1-2-1.6-3-.6.8-1.1,1.7-1.7,2.6l-.5.9c-4.6-5.3-10.3-9.5-15.4-14.3-4.8,1.3-4.5,5.7-4.8,9.4,7,7.5,14.9,14.1,21.4,21.9,6.4,7.6,14.8,14.1,19.6,22.8-15-10.5-25.8-24.7-38.4-37.3-10.1-9.3-19.1-19.5-29.7-28.4-39-35.8-105.7-101.1-106.7-97.8,1,1.5,104.7,110.6,105.8,112.1,3.6,4.2,8.6,9.8,12.3,13.9,15,16.6,29.7,30.9,44.6,47.5,1.3,1.5,2.2,3.2,3.2,5-.9-.6-2.7-1.7-3.6-2.3-21.6-18.8-39.7-40.4-57.9-61.8l-59.7-63.1-7.4,2.2c1.6,2.1,8.3,10.3,17.3,20.9,2,2.4,4.1,4.9,6.2,7.4,21.5,25.5,50.2,59.3,54,63.9,16.8,19.9,35.1,39,47.3,61.6,2.5-2.5,4.4-5.4,7.1-7.7,6-2.2,12.4.9,16.7,4.6,14.8,11.9,22.4,28.9,28.2,45.5,4.9,11.9,8.5,24.4,8.9,37.2,0,4.2-.5,8.7-3.1,12.4-2.4,3.1-7.3,1.9-10.9,2.3,4.1,6.2,8.3,12.6,9.1,19.9.4,4.3.9,9.2-2.3,12.7-.9-8.5-1-17.7-6.7-24.9-3.5-5.5-9.9-8.5-16.3-10.5-1.6,9.4,1.9,19.7-3.4,28.5-1.6,7.3-2.8,14.8-5.4,22-4.5,13.2-10,26.9-21.6,36.4-7.1,5.9-14.4,11.6-20.8,18.1,4.4.6,8.7,1.2,13.1,1.7.9.1,1.8.2,2.7.4,1.1-.9,2.3-1.7,3.5-2.5,6.5-4.5,14.3-7.7,19.7-13.5,9-9,12.2-21.1,16.1-32.3,2.8-7.5,4.2-15.2,6.2-22.9,1.4,2.2.4,4.7.1,7-2.9,12.7-4.1,25.9-9.9,37.9-3.5,6.5-8,12.7-14.1,17.4-4.7,3.7-10.1,6.5-15.2,9.7,12.8,1.7,25.5,3.7,38.3,6,13.7-41.4,15.2-45.9,15.9-50.2-2,14.6-6.4,32.2-9.3,46.5-.2,1.6-.4,3.2-.6,4.8,4.4.8,8.7,1.7,13.1,2.6,4.5.3,9,.7,13.6,1,0-1.3-.1-2.6-.1-3.9-.5-19.6,10.2-38.8,15-57.5,2.6-7.4,2.9-15.1,5.2-22.5,1.5,13.6,1.5,27.4-1.5,40.9-2,9.1-10.3,26.6-12.7,43.5M4.2,248.3c3.6,19.9,4.5,40.8-2.3,60.3-1,2.2-1.4,5-3.9,6.3.2-5.6,2.5-10.9,3.3-16.5,4.4-24.9-.4-50.1-7.3-74.3-4.7-17.3-12.7-33.8-21.8-49.6-4.2-7.3-8.9-14.4-14.7-20.7-2.3-2.7-5.3-5-6.6-8.3,4.4,1.8,7.3,5.4,10.5,8.5,8.1,9.1,15.7,18.6,21,29.3C-7.1,204,.7,225.8,4.2,248.3h0Z"/>
    <path class="st15" d="M96.9,9c34.4,15.2,78.3,48.2,103.8,82.5-40.5-28.6-80.9-44.2-106.8-44.2S53.7-9.3,26.3-14.7c43.8-12,35.8,8.4,70.6,23.8Z"/>
    <path class="st9" d="M102.7-143.8l-8.9,16c2.8,17.2,2.6,22.9,1.3,40.3,3.3-10.1,1.1-20.6,2.4-30.9,2.8,4.5,2.3,9.8,2.8,14.8.7,14.8.8,29.8-1.1,44.5-1.1,8.9-1.3,18.1-5.5,26.4-3,6.8-6.8,13.5-7.2,21,5.3-7.1,5.4-16.4,11.1-23.4,4.6-4.1,11.7-4.8,17.9-4.7-5,4.2-12.7,5.4-16,11.2-7.1,11.9-9.9,25.3-15.5,37.7-5.7,13.7-11.4,27.5-17.5,41.1,5.2-2.9,11.6-4.7,15-9.4,6.7-18.8,13.6-37.6,20.3-56.4,1.8-4.5,3.4-9.3,7.4-12.6,9.6-8,22.1-12,34.3-15.6.2-.5.7-1.5.9-2,4.2-2.1,8.8-3.3,13.2-5.1-.6-1-1.1-2-1.7-3-3.3-.4-6.6-.9-9.9-1.5-9.5,2.4-19.1,4.6-28.5,7.4,15.5-22,33.3-42.6,50.7-63.3,1.6-2.4,3.2-4.7,4.9-6.9-1.7-1-3.3-2-4.9-3.1-5.1,3.1-7.4,8.3-10.9,12.5-7,8.8-15.4,16.8-22.5,25.6-6.5,8.2-12.3,17-20.1,24.2.2-1.9.4-3.7.7-5.6-.4-.5-1.2-1.6-1.6-2.2-2.2,2.7-4.4,5.4-6.6,8.1,2.7-29,1.6-58.4-5-86.9-3.2,2.3,4.1.1.4,1.9h0Z"/>
    <path class="st41" d="M97.5-118.4c2.8,4.5,2.3,9.8,2.8,14.8.7,14.8.8,29.8-1.1,44.5-1.1,8.9-1.3,18.1-5.5,26.4-3,6.8-6.8,13.5-7.2,21,5.3-7.1,5.4-16.4,11.1-23.4,4.6-4.1,11.7-4.8,17.9-4.7-5,4.2-12.7,5.4-16,11.2-7.1,11.9-9.9,25.3-15.5,37.7-5.7,13.7-11.4,27.5-17.5,41.1,5.2-2.9,11.6-4.7,15-9.4l-.4,1c15.4-5,31.6-8.5,46.3-15.2,16.8-8.1,32-18.5,47.5-28.4,11.3-7.9,25.8-10.6,39.8-12.1,1.8,0,3.5,0,5.3.1-2.3,1.3-5.7,2.8-8,4.2-2.1,1.2-3.5.4-5.7,1.3-7.5,2.7-15.3,5-22.3,8.9-11.7,6.4-21.4,15.2-32.9,21.9-6,3.9-12.6,7-17.7,11.8,5.9-.3,12-.7,17.5-2.7,5-.3,9.7,1.5,14.1,3.6,10.2,4.8,20,10.2,30.3,14.8,4,1.2,8.2,1,12.3,1.4-4.3,2.5-9.6,4.5-14.7,3.2-13.1-3.4-24.4-10.7-37.2-14.7-12-3.2-24.2,1-35.6,4.1-17.9,6-35.6,12.8-51.9,22-21,12.7-40.9,27.3-56.3,45.4-10.8,12.2-16.1,29-10.8,44.1-3.8,3.1-7.5,6.4-11,9.9-6.5-12.3-13.3-24.5-20.3-36.6-12.2-26.5-20.8-54.1-31.4-81.1-2.5-5.5-4.4-11.2-6.5-16.8-1.4-1.6-2.9-3.1-4.3-4.7-4.8-15.8-11.2-31.1-16.6-46.7,4.1-3.9,4.5-9.3,5.4-14.3,12-27.8,25.8-55,37.8-82.8,3.5,2.7,4.3,7,4.9,10.8-3.3,9.6-8.1,18.8-11.7,28.3-3.4,8.8-8.7,17.1-10.5,26.4,3.1-2.8,4.3-6.7,5.8-10.4,3.1-7.7,6.7-15.2,10-22.7.9.3,1.8.6,2.7.9-3,9.8-5.7,19.6-10,29-4.4,13.4-10.8,26.5-11.3,40.7-1.3,21.7,7.2,42.5,14.4,62.8,3.9,12,8.9,23.8,14.1,35.4,1.9,4,3.8,8.3,7.4,11.4,4.7,3.5,10.6,5.2,16.4,6.8-.6-1.6-1.2-3.1-1.9-4.7C1.2,79.7,21.1,65.3,40.1,50c7.9-6.4,14.4-14.2,18.2-23.1,6.8-13.9,12.2-28.2,18.4-42.3,5.1-12.9,11.2-25.5,14-38.9,2.3-10.9,3.6-22,4.4-33.1,3.3-10.1,1.1-20.6,2.4-30.9M-64.4-50.7c-3.4,7.9-7.1,15.7-9,24,3.1-2.5,3.7-6.5,5.2-9.8,1.9-5.3,4.8-10.3,5.5-15.9-.4.4-1.3,1.2-1.7,1.6M31.6,67.7c-4.7,3.5-10.6,5.9-13.8,10.7,11.3-6,22.3-12.6,32.5-20.1,5.5-3.9,9.9-9.2,12.3-15.2-9.2,9.3-19.3,18-31,24.7M53.8,65c5.3-2.1,11.3-4.1,15.1-8.3-5.3,2.1-11.5,4-15.1,8.3M37.2,73.8c-1.5,1.2-3.9,2.1-4.1,4.1,3.5-.3,5.7-3.1,8.5-4.7,3.6-2.8,8.7-4.4,11.3-8.2-5.7,2.3-10.6,5.8-15.7,8.9M4.5,89.1c5.2-2.7,10.1-6.4,13.4-11-5.5,2.3-10,6.5-13.4,11M21.9,86.7c4.1-1.6,8.3-4.5,10.2-8.1-4.5,1.1-7.8,4.8-10.2,8.1h0Z"/>
    <path class="st40" d="M16.5,426.3s25.3-28,21.4-38c-1.6-4.2.7,6.1.2,1.6-2.8-20.3,5.1-40,12.5-58.9,5.4-13.4,8.7-27.4,11.3-41.5h0c.1-.6.2-1.2.4-1.8,1.9-10.7,4.2-21.5,3.4-32.4-1.5-20.6-10.4-40.3-22.7-57.6-9.2-14.8-22.1-28.3-26.3-45.2-2.7-9.8-2.5-20.6,2.9-29.6,7.6-13.6,19.5-24.7,32-34.7,9.4-7.9,19.6-15,31-20.4,18.1-8.6,36.6-17.1,56.7-21.5l2.3-.6h1.2c6-1,12.1.2,17.8,2,11.2,3.7,21.8,8.8,33.1,12.4,4,1.4,7.8-1,11.5-2.2,11.8-4.8,24.3-8.7,35.4-15,3.5-2.5,7.1-4.9,10.4-7.6-5,1.5-9.8,3.4-14.9,4.6-13.6,3.3-26.8,7.8-40.7,10,4,1.2,8.2,1,12.3,1.4-4.3,2.5-9.6,4.5-14.7,3.2-13.1-3.4-24.4-10.7-37.2-14.7-12-3.2-24.2,1-35.6,4.1-17.9,6-35.6,12.8-51.9,22-21,12.7-40.9,27.3-56.3,45.4-10.8,12.2-16.1,29-10.8,44.1,3.3,8.4,7.6,16.8,14.4,23.4,4.9,4.6,10.2,8.9,14.9,13.7-4.6-.3-9.9-1.5-14,1.1-2.5,2.3-3.2,5.6-3.9,8.6-2.3,11.2,1,22.5,2.7,33.6,2.4,12.8,3.9,25.8,7.8,38.4,1.8,5.4,3.9,11.1,8.8,14.9,3.6,2.6,8.3.9,12.3.2-.3,1.7-.5,3.2-.8,4.6,0,0,0,0,0,0-5.9,27.7-21.2,53.2-24.8,81.4-.7,6.1,0,12.1-.4,18.2-5.6-18.5-3.4-38.1.8-56.7,2.7-12.1,2.9-24.5,1.9-36.7,0,0,0,0,0,0-.1-1.4-.2-2.8-.4-4.1-2.2,7.4-2.6,15.2-5.2,22.5-4.8,18.7-16.4,36.1-15.9,55.7,0,.3,0,.5,0,.8.5,21.4,3,35.1,17.1,51.3h0ZM50.9,226.4c4.1,10.7,8.1,22.2,5.6,33.6-1.5,6.9-4,14.2-9.7,19.4-2.5,2-5.7,4.2-9.3,3.4-3.1-1-4.9-3.7-6.5-6.1-5.2-8.6-7-18.3-9.1-27.8-2.2-12.6-5.2-25.2-5.5-38.1.3-4.7.6-11.1,6.5-12.8,3.9-.9,7.2,1.7,10.3,3.5,9.5,5.7,13.7,15.8,17.7,24.9h0Z"/>
  </g>
  <g id="Cord_4">
    <path class="st3" d="M52.9,160.7c.2,0,.4,0,.7,0s.6,0,.8,0c0-25.9,0-53.1,0-79,0,0-1.4.4-1.8,0,.6,5.7.2,11.7.3,17.5.1,20.5,0,41,0,61.5h0Z"/>
  </g>
  <g id="Cord_3">
    <path class="st3" d="M156.7,49.2c.3,0,.7,0,1.1,0s1,0,1.3,0c0-30.8-.1-63.1,0-93.9,0,0-2.2.4-2.9,0,.9,6.8.3,13.9.5,20.8.2,24.4.2,48.7,0,73.1h0Z"/>
  </g>
  <g id="Lantern_3">
    <g>
      <path class="st7" d="M157.4,48.8h0c-6.4.7-9.5,6.2-6.5,10.7.7,0,2.1,0,2.8,0-.5-1.8-1.8-3.9-.4-5.6,2.4-3.2,8.2-3.1,9.7.6,1.7,2.7-1,5-2.9,6.7,1.2,0,2.3.2,3.5.2l.6-.2c1.9-2.1,2.3-5.3,1.1-7.9-1.1-2.6-3.3-4.2-8-4.5h0Z"/>
      <path class="st1" d="M150.9,59.5h0c.2.4.6,1.3.8,1.7-2.3,0-4.6,0-6.9.2-.3,2.4-.6,4.8-1,7.2,9.4.2,18.9-.4,28.3.4-.3-2.6-.8-5.1-1.6-7.6-2.3,0-4.5,0-6.8,0-1.2,0-2.3,0-3.5-.2-2.3-.1-4.4-.6-6.4-1.7-.7,0-2.1,0-2.8,0h0Z"/>
      <path class="st29" d="M143.7,68.6v1c9.4-.4,18.9.8,28.3-.6-9.4-.8-18.9-.2-28.3-.4h0Z"/>
      <path class="st16" d="M172,69h0c-9.4,1.4-19,.2-28.4.6-4.4.8-8.5,3.1-10.8,6.7,11.7,1.4,23.5,0,35.3.7,4.9-.1,9.9,1.1,14.6-.4-2.2-3.9-6.6-5.8-10.6-7.6h0Z"/>
      <path class="st44" d="M132.8,76.3c-.3.7-.8,2.2-1,2.9-1.6.1-3.3.2-4.8.7-1.3,1.4-.7,3.3.6,4.4,1-1.8,1.3-5.1,4.3-4.6,17.3.2,34.6.2,51.9-.6-.2-.7-.7-2-.9-2.7h-.2c-4.7,1.6-9.8.4-14.6.5-11.7-.6-23.6.7-35.3-.7h0Z"/>
      <path class="st33" d="M183.8,79.2h0c-17.3.8-34.6.8-51.9.6-3-.5-3.3,2.8-4.3,4.6v.2c.6,0,2,0,2.6,0h1.6c.3.5.9,1.5,1.2,2,0-.5-.2-1.5-.3-1.9,3.9,0,7.8,0,11.8,0,.7,0,2.2,0,2.9,0h21.2c.7,0,2,0,2.7,0,4,0,8.1,0,12.1,0,0,.8-.3,2.3-.3,3,.3-.9.7-1.8,1.1-2.7l1.6-.3c1.2-.2,2.4-.6,3.6-1.1,0-.7,0-2.2,0-3-1.5-1.3-3.6-1.6-5.6-1.3h0Z"/>
      <path class="st6" d="M130.2,84.5h0c2.6,14.9,5.1,29.8,8.5,44.5.5-.5,1.4-1.4,1.9-1.9-2.2-10-3.8-20.2-5.6-30.3-.7-3.5-1.4-6.9-2-10.4-.3-.5-.9-1.4-1.2-1.9h-1.6Z"/>
      <path class="st22" d="M132.7,84.5h0c0,.5.2,1.5.3,1.9.6,3.5,1.3,6.9,2,10.4,4,.7,6.9-2.6,10.3-3.9-.3-2.8-.6-5.7-.8-8.5-3.9,0-7.8,0-11.8,0h0Z"/>
      <path class="st39" d="M144.4,84.5c.3,2.8.6,5.7.8,8.5,1.3,12.2,1.9,24.5,3.6,36.7h1.5c0-.9.3-2.6.3-3.4-.7-11-2.1-22-2.7-33-.2-2.9-.4-5.9-.6-8.8-.7,0-2.2,0-2.9,0h0Z"/>
      <path class="st17" d="M147.3,84.5h0c.2,2.9.4,5.8.6,8.8,6.7-.1,13.3,0,20,.5,0-.7.2-2.2.2-2.9.1-2.1.2-4.3.4-6.4h-21.2Z"/>
      <path class="st4" d="M168.5,84.5h0c-.1,2.1-.3,4.3-.4,6.4.9,1.1,1.6,2.3,2.2,3.5,0-.3,0-.9.1-1.2.3-2.9.5-5.8.7-8.7h-2.7Z"/>
      <path class="st20" d="M171.2,84.5h0c-.2,2.9-.4,5.8-.7,8.7,3.6,1,7.3,1.8,11,2.3.6-2.7,1.1-5.3,1.6-8,0-.8.2-2.3.3-3-4,0-8.1,0-12.1,0h0Z"/>
      <path class="st42" d="M184.1,84.9h0c-.4.9-.8,1.7-1.1,2.7-.4,2.7-1,5.3-1.6,8-1.1,5.1-2,10.3-3,15.5-1.1,6.2-3,12.3-2.8,18.7.3,0,1,.3,1.4.4,2.5-15.2,5.7-30.3,8.7-45.5l-1.6.3h0Z"/>
      <path class="st49" d="M168.1,90.9h0c0,.7-.2,2.2-.2,2.9-1,10.5-2.2,21-3.1,31.5,0,1.7.2,3.4.3,5.1.5-.6,1.1-1.1,1.6-1.7,1-11.4,2.3-22.9,3.6-34.3-.6-1.3-1.4-2.4-2.2-3.5h0Z"/>
      <path class="st0" d="M135,96.9h0c1.8,10.1,3.4,20.2,5.6,30.3.2.7.5,2,.7,2.7,2.5,0,5.1-.1,7.6-.2-1.7-12.2-2.3-24.4-3.6-36.7-3.4,1.3-6.3,4.6-10.3,3.9h0Z"/>
      <path class="st14" d="M147.9,93.3h0c.7,11,2.1,22,2.7,33,.1,1.1.2,2.3.4,3.4,4.4,0,8.9,0,13.3,0,.1-1.5.3-3,.4-4.4.9-10.5,2.1-21,3.1-31.5-6.7-.5-13.3-.6-20-.5h0Z"/>
      <path class="st30" d="M170.5,93.2h0c0,.3,0,.9-.1,1.2-1.3,11.4-2.6,22.8-3.6,34.3l.2,1c2.9,0,5.8,0,8.6,0-.2-6.3,1.7-12.5,2.8-18.7,1-5.2,1.9-10.3,3-15.5-3.7-.6-7.4-1.3-11-2.3h0Z"/>
      <path class="st28" d="M164.4,129.8h0c-4.4,0-8.9,0-13.3,0-.2-1.2-.3-2.3-.4-3.4,0,.8-.3,2.5-.3,3.3h-1.5c-2.6.2-5.1.2-7.6.3-.2-.7-.5-2-.7-2.7-.5.5-1.4,1.4-1.9,1.9-1.3,1.4-3.5,2.2-3.8,4.2h.5c3.6.5,7.2.8,10.9.7,10.2-.5,20.3-.3,30.5-.1.5-.8,1.4-2.4,1.9-3.2l-1.6-.6c-.3,0-1-.3-1.4-.4-2.9,0-5.8,0-8.6,0l-.2-1c-.5.6-1.1,1.1-1.6,1.7-.1-1.7-.3-3.4-.3-5.1-.1,1.5-.3,3-.4,4.4h0Z"/>
      <path class="st47" d="M178.6,130.7h0c-.5.8-1.4,2.4-1.9,3.2-10.2-.1-20.3-.4-30.5.1-3.7.1-7.3-.2-10.9-.6.8,2.4,3.7,2,5.8,2.3,11,.3,21.9-.5,32.8,0,1.9-.2,4.5.6,5.7-1.3.4-1.4-.1-2.6-1.1-3.7h0Z"/>
      <path class="st26" d="M141.1,135.5h0c0,1.2-.2,2.3-.2,3.5,11,0,22.1.4,33.1-.5,0-.8,0-2.2,0-3-10.9-.5-21.9.3-32.8,0h0Z"/>
      <path class="st31" d="M140.9,139.1h0v1.5c11,.1,22-.2,33-.2,0-.4,0-1.3.1-1.8-11,.9-22.1.4-33.1.5h0Z"/>
    </g>
  </g>
  <g id="Lantern_4">
    <g>
      <path class="st2" d="M53,160.5c-3.7.6-5.4,5-2.9,7.6.7,0,1.4,0,2.2,0-1.4-1-2.5-2.9-1.3-4.4,1.5-1.9,4.7-1.6,6,.3.4-.1,1.1-.3,1.5-.4-.6-1.5-2.1-3.5-5.4-3.1"/>
      <path class="st23" d="M58.7,163.6h-.2c-.4.1-1.1.3-1.5.4.2,1.4-.2,3-1.5,3.8-1,.2-2.1.3-3.1.3-.7,0-1.4,0-2.2,0-1.4,0-2.9.1-4.3.4-.3,1.8-.6,3.6-.9,5.3-2.9-.2-5.3,1.6-6.6,3.9,3.3.7,6.6.2,9.9.3,5.4,0,10.9.3,16.3.3,1.6,0,3.1-.3,4.5-.8-1.5-1.8-3.6-3.3-6.1-3.6-5.6-.8-11.4.3-16.9-.9,5.5-.6,11.1-.3,16.6-.3-.1-1.4-.4-2.8-.6-4.2-1.4,0-2.8-.1-4.1-.1.9-1.4,1.1-3.1.9-4.7h0Z"/>
      <path class="st46" d="M46,172.9h0c5.5,1.3,11.3,0,16.9.9,0-.3-.3-.9-.3-1.3-5.5,0-11.1-.3-16.6.3h0Z"/>
      <path class="st32" d="M38.4,177.7c-.2.6-.4,1.2-.6,1.8,1.4.1,2.7.2,4.1.2,9.4-.2,18.8,0,28.2-.2-.3-.7-.6-1.4-.9-2.1-1.4.5-3,.9-4.5.8-5.4,0-10.9-.3-16.3-.3-3.3,0-6.7.4-9.9-.3h0Z"/>
      <path class="st25" d="M34.4,180.6h0c.2,1.3,1.2,1.9,2.5,2.1,1.8,9.4,3.2,18.9,5.4,28.3.4,0,.8,0,1.1-.1-1.5-7.3-2.8-14.6-4-22-.4-2-.7-4.1-1-6.1-2-.3-3.2-1.6-3.3-3.4-.2.3-.6.9-.8,1.2h0Z"/>
      <path class="st35" d="M35.2,179.4h0c.1,1.8,1.3,3.1,3.3,3.4,2.4,0,4.8,0,7.2,0,0,.2.2.6.3.8.2-.3.6-.9.9-1.1.2,1,.5,2.1.7,3.1,0-.9,0-1.8-.1-2.8,4.3,0,8.7,0,13,0h1.8c2.4,0,4.9-.2,7.3.3.2,0,.7.1.9.2,0,.2.1.5.2.7v.2c.2-.4.5-1,.7-1.4,1.6-.2,2.1-1.4,1.9-2.7-1-.4-2.1-.6-3.1-.5-9.4.2-18.8,0-28.2.2-1.4,0-2.7,0-4.1-.2-.9,0-1.7-.1-2.6-.1h0Z"/>
      <path class="st45" d="M46,183.6h0c.2,1.4.3,2.9.4,4.4.6,7.6,1.2,15.2,1.9,22.8h1.4c-.6-7.4-1.3-14.9-1.9-22.3,0-1-.1-1.9-.2-2.9-.2-1-.5-2.1-.7-3.1-.2.3-.6.9-.9,1.1h0Z"/>
      <path class="st12" d="M60.5,182.8h0c-.1,2.3-.3,4.6-.5,7-.6,7-1.7,14-1.9,21.1.4,0,.8,0,1.2,0,.6-6.7,1.3-13.5,2.1-20.2,0-.9.1-1.9.2-2.8.2-1.7.3-3.4.5-5.1h-1.8s0,0,0,0Z"/>
      <path class="st18" d="M38.5,182.8c.3,2,.6,4.1,1,6.1,2.3.1,4.7-.3,6.9-.9,0-1.5-.2-2.9-.4-4.4,0-.2-.2-.6-.3-.8-2.4,0-4.8,0-7.2,0h0Z"/>
      <path class="st19" d="M47.5,182.8h0c0,.9,0,1.8.1,2.8,0,1,.1,1.9.2,2.9,3.4-.1,6.9,0,10.3.3.8,0,1.4.4,1.8,1.1.2-2.3.4-4.6.5-7-4.3,0-8.7,0-13,0h0Z"/>
      <path class="st27" d="M62.2,182.8h0c-.1,1.7-.3,3.4-.5,5.1,2.2.4,4.4.8,6.7,1.1.4-2,.8-3.9,1.1-5.9-2.4-.5-4.9-.3-7.3-.3h0Z"/>
      <path class="st38" d="M69.5,183.1h0c-.3,2-.7,3.9-1.1,5.9-.5,2.2-.9,4.4-1.4,6.6-.8,5.1-1.9,10.1-2.8,15.2.3,0,.9.2,1.3.3,1.5-9.1,3.3-18.1,5.2-27.1,0-.2-.1-.5-.2-.7-.2,0-.7-.1-.9-.2h0Z"/>
      <path class="st36" d="M39.5,188.9c1.2,7.4,2.5,14.7,4,22,1.6-.1,3.2-.2,4.8-.2-.6-7.6-1.3-15.2-1.9-22.8-2.2.6-4.6,1-6.9.9h0Z"/>
      <path class="st5" d="M61.7,187.9h0c0,.9-.2,1.9-.2,2.8.6,2.3.7,4.6.3,6.9-.6,3.7-.5,7.5-.1,11.2,3.5-3.7,2.3-9.4,5.4-13.3.5-2.2.9-4.4,1.4-6.6-2.2-.3-4.5-.6-6.7-1.1h0Z"/>
      <path class="st50" d="M47.8,188.4c.6,7.4,1.3,14.9,1.9,22.3,2.8,0,5.6,0,8.4.1.1-7.1,1.3-14.1,1.9-21.1-.4-.7-1-1-1.8-1.1-3.4-.4-6.9-.4-10.3-.3h0Z"/>
      <path class="st21" d="M61.5,190.7h0c-.9,6.7-1.5,13.5-2.1,20.2,1.6,0,3.2,0,4.9,0,.9-5.1,2-10.1,2.8-15.2-3.1,3.9-1.9,9.5-5.4,13.3-.4-3.7-.4-7.5.1-11.2.4-2.3.3-4.7-.3-6.9h0Z"/>
      <path class="st13" d="M42.3,211h0l-1.3.2c.1.4.4,1.2.5,1.6,7.7.6,15.5.6,23.2.3.5-.6,1.1-1.2,1.6-1.8l-.8-.2c-.3,0-.9-.2-1.3-.3-1.6,0-3.2,0-4.9,0-.4,0-.8,0-1.2,0-2.8-.1-5.6-.2-8.4-.1h-1.4c-1.6,0-3.2,0-4.8.2-.4,0-.8,0-1.1.1h0Z"/>
      <path class="st10" d="M40.6,213.6h0c.8.9,2.1.6,3.2.7,6.5.4,13.1-.3,19.6.2,1.3-.1,3,.2,3.8-1,.3-.9-.3-1.6-.9-2.2-.5.6-1.1,1.2-1.6,1.8-7.7.2-15.5.2-23.2-.3-.1-.4-.4-1.2-.5-1.6-.6.7-1,1.5-.5,2.4h0Z"/>
      <path class="st43" d="M43.8,214.3v2.2c6.7,0,13.4.3,20-.3,0-.4-.3-1.3-.4-1.7-6.5-.5-13.1.2-19.6-.2h0Z"/>
      <path class="st37" d="M43.8,216.5h0v.9c6.7,0,13.3,0,20,0,0-.3,0-.8,0-1.1-6.6.6-13.3.3-20,.3h0Z"/>
    </g>
  </g>
</svg>