<?xml version="1.0" encoding="UTF-8"?>
<svg id="Laag_1" data-name="Laag 1" xmlns="http://www.w3.org/2000/svg" viewBox="0 0 261.42 261.42">
  <g id="Tree">
    <path d="M109.7,23.25c-49.89-62.74-241.13-63.66-248.27-62.81-100.41,12.01-120.49-55.71-233.67,6.55-21.85,12.02-18.86,130.45,41.99,111.41,60.85-19.04,53.55,23.56,109.53,42.6,55.99,19.05,76.68,36.29,120.49,4.92,43.82-31.37,92.72,30.49,124.75,37.68,32.03,7.19,27.99,3.63,48.68,11.47s84.58,33.31,84.58,33.31c0,0,57.33,10.87,61.46-48.06,6.09-86.83-59.63-74.35-109.53-137.08h0Z" style="fill: #f27646;"/>
    <path d="M67.11,74.58c-43.51,3.71-138.75,28.4-149.09-58.98-3.13-26.45-118.66-68.27,55.98-48.61,15.75,1.77,23.73,0,54.16,0,2.75,0,5.27.09,7.61.28,35.66,2.84,26.32,26.39,61.16,41.77,34.38,15.17,78.28,48.16,103.79,82.45,2.03,2.73,3.95,5.47,5.74,8.21,32.76,50.26,23.32,80.79-7.91,101.04l.02-19.56c.08-62.5-59.3-112.09-128.69-106.82-.92.07-1.84.14-2.77.22h0Z" style="fill: #ff9e45;"/>
    <path d="M270.47-25.81c-16.68-12.44-93.72-27.86-180.12-45.33-49.92-10.1-98.57,15.51-104.06,23.48C-25.97-29.87,60.66-29.73,69.01,14.06c8.34,43.8,105.39,58.06,174.78,83.63,28.63,10.55,48.43,7.82,61.81.98,16.09-8.23,25.51-24.02,24.88-40.63-2.83-74.79-31.35-62.46-60.01-83.85Z" style="fill: #ff9e45;"/>
    <path d="M-120.99-72.86C237.5-44.64,39.59,110.71,269.7-17.7c63.62-35.5-62.75-59.95-66.73-123.71-3.98-63.76,45.64-103.42-62.23-139.27-21.79-7.24,10.02-18.84-70.19-37.88-80.21-19.04-110.63-14.56-160.42-19.04-49.79-4.48-186.7,95.78-198.28,122.1-11.58,26.33-147.02,98.71-9.17,149.19,97.03,35.54,49.25-16.55,176.33-6.55h0Z" style="fill: #f27646;"/>
    <path d="M-7.49-11.91c-86.87,31.65-123.71-11.78-190.42,17.37-66.71,29.15-139.15-72.98-106.76-115.39,32.39-42.41,64.33,5.93,93.42-8.48,29.08-14.41,107.58-9.74,139.87,33.99C68.14-126.26,97.44-50.14-7.49-11.91Z" style="fill: #f27646;"/>
    <path d="M147.73-159.64c-6.23-3.28-33.2-68.82-72.61-108.14-39.41-39.32-83.32-89.84-170.45-76.73-87.13,13.11-174.95,76.46-189.47,128.89-15.87,57.31,116.17-46.42,285.58,9.83,45.22,15.02,70.05,44.25,78.83,92.3,5.98,32.69,50.48,60.62,46.1,82.87-11.55,58.68,119.86,58.49,155.12,7.24,7.07-10.27-126.88-132.98-133.1-136.26Z" style="fill: #ff9e45;"/>
    <path d="M-107.58-99.52c6.64,19.28,13.38,38.54,21.34,57.43-4.88-2.62-6.56-7.67-9.21-11.86-3.72-6.57-9.02-12.34-12.2-19.16-3.2-6.72-6.42-13.42-9.43-20.21,2.79.33,5.57.71,8.37,1.12.4-2.43.8-4.88,1.12-7.32M31.65,67.69c11.71-6.68,21.79-15.38,31-24.65-2.39,5.96-6.78,11.22-12.29,15.17-10.17,7.51-21.17,14.13-32.46,20.14,3.13-4.79,9.1-7.22,13.75-10.66M-130.58,55.48h0c2.21,1.1,4.47,2.24,6.3,3.86,7.98,7.21,15.85,14.53,23.43,22.09,6.95,7.46,14.92,14.12,21.41,21.95,6.45,7.64,14.77,14.13,19.62,22.78-14.98-10.46-25.76-24.73-38.38-37.27-10.15-9.28-19.11-19.53-29.74-28.39-.99-1.62-1.81-3.35-2.63-5.03h0Z" style="fill: #564340;"/>
    <path d="M202.3-3.53c5.79-3.8,5.47-3.32,9.72-6.07-2.44.05-3.51.38-5.74,1.26-7.55,2.71-15.33,5.01-22.27,8.87-11.7,6.42-21.42,15.25-32.95,21.88-5.95,3.88-12.62,6.96-17.73,11.77,5.92-.26,11.98-.66,17.53-2.72,11.52-9.58,23.54-18.8,36.32-26.96,6.59-4.2,7.91-4.84,15.12-8.03Z" style="fill: #57423d;"/>
    <path d="M27.5,222.91c1.09,9.62,3.6,19.05,6.35,28.39,1.53,4.66,3.48,9.84,8.51,12.38,4.47-3.58,5.39-9.23,5.62-14.32,0-9.53-2.97-18.84-6.89-27.61-1.91-4.01-5.06-8.3-10.12-9.28-3.97,2.04-3.41,6.91-3.46,10.44h0Z" style="fill: #57423d;"/>
    <path d="M-60.73,61.84h0c8.85,21.68,15.41,44.11,25.33,65.43,10.33,18.4,21.19,36.59,30.71,55.36,2.35,4.73,4.13,9.71,7.15,14.18-1.82-11.07-7.14-21.42-12.29-31.51-6.51-12.31-13.27-24.54-20.33-36.62-12.17-26.47-20.77-54.14-31.39-81.13-2.47-5.51-4.36-11.18-6.46-16.8-.99,10.77,4.42,20.86,7.28,31.1h0Z" style="fill: #765953;"/>
    <path d="M53.8,64.99c5.35-2.09,11.32-4.09,15.06-8.27-5.32,2.1-11.46,3.97-15.06,8.27h0Z" style="fill: #795c57;"/>
    <path d="M46.76,279.41c5.73-5.15,8.16-12.42,9.7-19.37,2.54-11.43-1.49-22.9-5.56-33.62-4.02-9.15-8.22-19.22-17.73-24.92-3.06-1.72-6.43-4.35-10.28-3.46-5.84,1.78-6.18,8.17-6.46,12.83.28,12.82,3.3,25.42,5.48,38.06,2.02,9.47,3.85,19.23,9.05,27.8,1.61,2.39,3.44,5.07,6.5,6.1,3.59.77,6.8-1.4,9.31-3.42h0ZM41.11,221.75c3.92,8.78,6.89,18.08,6.89,27.61-.23,5.09-1.15,10.74-5.62,14.32-5.03-2.55-6.99-7.72-8.51-12.38-2.75-9.34-5.25-18.78-6.35-28.39.05-3.53-.51-8.4,3.46-10.44,5.05.99,8.21,5.27,10.12,9.28h0Z" style="fill: #765953;"/>
    <path d="M37.16,73.8h0c-1.52,1.18-3.88,2.09-4.07,4.12,3.49-.27,5.73-3.14,8.53-4.74,3.65-2.84,8.68-4.39,11.25-8.23-5.69,2.26-10.59,5.76-15.71,8.86h0Z" style="fill: #795c57;"/>
    <path d="M4.47,89.14c5.21-2.71,10.15-6.43,13.43-10.98-5.55,2.29-10.01,6.53-13.43,10.98h0Z" style="fill: #795c57;"/>
    <path d="M21.88,86.74c4.13-1.61,8.3-4.5,10.24-8.14-4.5,1.07-7.77,4.76-10.24,8.14h0Z" style="fill: #795c57;"/>
    <path d="M-48.98,145.56h0c1.27,3.29,4.23,5.62,6.57,8.28,5.82,6.32,10.47,13.41,14.7,20.66,9.05,15.83,17.07,32.29,21.76,49.62,6.89,24.15,11.7,49.41,7.26,74.29-.77,5.54-3.06,10.83-3.26,16.46,2.53-1.3,2.92-4.08,3.88-6.28,6.77-19.48,5.86-40.36,2.3-60.29-3.48-22.49-11.36-44.3-21.75-64.96-5.24-10.68-12.89-20.21-20.97-29.28-3.17-3.11-6.1-6.7-10.49-8.5h0Z" style="fill: #795c57;"/>
    <path d="M312.04-9.46c31.35,38.79,10.59,75.17,11.36,44.27.61-24.58-23.56-12.99-27.99-19.12C238.67-62.7,194.77-3.24,107.09-75.96c-32.55-26.99-19.16-53.8-12.36-60.89,6.16-6.43,28.46-10.06,63.07,9.06,55.38,30.59,92.98,39.3,98.06,70.3,3.01,18.37,39.63,27.55,56.18,48.03Z" style="fill: #ffc74b;"/>
    <path d="M46.94,310.02c-1.09-4.87-4.45-10.63-2.73-20.87-4,.69-8.74,2.46-12.34-.16-4.85-3.81-6.98-9.55-8.8-14.9-3.93-12.56-5.39-25.58-7.8-38.4-1.64-11.1-4.96-22.34-2.67-33.57.73-3,1.44-6.28,3.91-8.55,4.11-2.58,9.36-1.38,13.99-1.08-4.77-4.77-10.01-9.11-14.95-13.72-6.87-6.58-11.17-14.95-14.43-23.38-3.84,3.14-7.53,6.44-10.97,9.93,5.15,10.1,10.47,20.44,12.29,31.51-3.02-4.47-4.8-9.45-7.15-14.18-9.53-18.77-20.39-36.96-30.71-55.36-9.92-21.32-16.48-43.75-25.33-65.43-.66,2.34-1.29,4.76-2.77,6.81-2.64.41-5.33.2-7.97.09-.72.88-1.02,1.25-1.75,2.13,1.99,8.6,4.18,17.15,6.77,25.63,1.07,3.75,2.63,7.57,1.99,11.52-3.21-7.79-8.29-14.73-12.34-22.16-.56-1-1.1-2-1.63-2.98-.58.84-1.14,1.7-1.69,2.58l-.49.86c-4.56-5.26-10.27-9.53-15.38-14.31-4.83,1.3-4.52,5.74-4.84,9.39,6.95,7.46,14.92,14.12,21.41,21.95,6.45,7.64,14.77,14.13,19.62,22.78-14.98-10.46-25.76-24.73-38.38-37.27-10.15-9.28-19.11-19.53-29.74-28.39-39.02-35.84-105.65-101.13-106.73-97.83.99,1.51,104.75,110.56,105.82,112.05,3.65,4.16,8.58,9.77,12.31,13.89,14.96,16.59,29.71,30.89,44.65,47.49,1.34,1.52,2.25,3.24,3.24,4.96-.9-.58-2.67-1.74-3.57-2.33-21.58-18.8-39.73-40.42-57.9-61.82l-59.69-63.14-7.41,2.2c1.58,2.15,8.34,10.29,17.27,20.93,1.99,2.36,4.08,4.85,6.25,7.43,21.48,25.51,50.24,59.33,54.05,63.88,16.77,19.87,35.13,39.01,47.33,61.59,2.53-2.46,4.4-5.44,7.1-7.73,5.96-2.17,12.39.91,16.74,4.56,14.8,11.89,22.37,28.91,28.21,45.52,4.85,11.95,8.48,24.43,8.92,37.2,0,4.24-.5,8.75-3.08,12.41-2.43,3.13-7.33,1.92-10.94,2.33,4.13,6.16,8.35,12.62,9.11,19.94.4,4.26.93,9.15-2.33,12.7-.9-8.51-.95-17.68-6.7-24.94-3.46-5.48-9.88-8.54-16.3-10.5-1.61,9.44,1.89,19.65-3.38,28.45-1.61,7.32-2.8,14.8-5.35,21.95-4.47,13.16-9.96,26.91-21.64,36.39-7.13,5.86-14.38,11.65-20.81,18.14,4.38.6,8.73,1.18,13.07,1.73.9.11,1.79.23,2.69.35,1.11-.88,2.25-1.74,3.47-2.52,6.51-4.55,14.28-7.75,19.74-13.46,8.98-8.99,12.17-21.08,16.12-32.29,2.84-7.46,4.19-15.25,6.17-22.88,1.38,2.18.45,4.69.12,7.01-2.88,12.72-4.15,25.88-9.87,37.91-3.47,6.49-8.01,12.66-14.14,17.38-4.68,3.68-10.09,6.5-15.16,9.7,12.78,1.72,25.55,3.71,38.27,6.01,13.71-41.41,15.24-45.9,15.89-50.2-1.97,14.61-6.37,32.25-9.25,46.55-.24,1.6-.44,3.18-.61,4.77,4.37.83,8.74,1.69,13.09,2.6,4.52.32,9.04.65,13.56.98-.07-1.28-.12-2.59-.15-3.94-.51-19.62,10.17-38.77,14.98-57.45,2.61-7.35,2.95-15.1,5.16-22.51,1.46,13.6,1.51,27.43-1.46,40.87-2.02,9.07-10.28,26.55-12.66,43.45M4.23,248.3c3.56,19.92,4.47,40.81-2.3,60.29-.96,2.2-1.35,4.98-3.88,6.28.2-5.63,2.48-10.93,3.26-16.46,4.44-24.89-.37-50.14-7.26-74.29-4.69-17.33-12.71-33.79-21.76-49.62-4.23-7.25-8.88-14.35-14.7-20.66-2.34-2.66-5.3-4.99-6.57-8.28,4.38,1.8,7.31,5.39,10.48,8.5,8.08,9.08,15.73,18.61,20.97,29.28C-7.13,204,.74,225.81,4.22,248.3h.01Z" style="fill: #765953;"/>
    <path d="M96.93,9.04c34.38,15.17,78.28,48.16,103.79,82.45-40.48-28.58-80.94-44.22-106.83-44.22S53.67-9.26,26.29-14.72c43.81-12.01,35.8,8.38,70.64,23.76Z" style="fill: #ffc74b;"/>
    <path d="M102.71-143.77l-8.95,15.99c2.84,17.16,2.6,22.9,1.32,40.26,3.25-10.08,1.08-20.62,2.42-30.87,2.8,4.51,2.28,9.85,2.84,14.82.7,14.83.77,29.75-1.12,44.54-1.14,8.86-1.29,18.09-5.46,26.36-2.96,6.79-6.79,13.55-7.24,20.97,5.33-7.11,5.41-16.42,11.09-23.37,4.61-4.15,11.67-4.77,17.88-4.67-4.97,4.16-12.72,5.37-15.98,11.17-7.11,11.85-9.91,25.26-15.47,37.68-5.69,13.74-11.4,27.5-17.53,41.1,5.16-2.88,11.55-4.66,15.03-9.41,6.66-18.85,13.61-37.61,20.34-56.43,1.75-4.47,3.41-9.29,7.45-12.57,9.56-8.01,22.12-11.96,34.29-15.64.21-.5.67-1.5.88-1.99,4.18-2.09,8.83-3.27,13.15-5.08-.57-.99-1.13-1.98-1.68-2.96-3.33-.39-6.63-.86-9.88-1.54-9.54,2.37-19.11,4.59-28.5,7.39,15.5-21.98,33.28-42.56,50.67-63.35,1.56-2.35,3.16-4.7,4.93-6.94-1.66-1-3.33-1.99-4.92-3.05-5.06,3.05-7.4,8.26-10.9,12.51-7.04,8.85-15.36,16.79-22.47,25.58-6.51,8.19-12.26,16.99-20.14,24.23.2-1.87.43-3.73.68-5.59-.39-.54-1.16-1.63-1.55-2.18-2.23,2.69-4.4,5.39-6.59,8.09,2.72-28.98,1.63-58.38-5-86.91-3.21,2.31,4.06.12.42,1.86h0Z" style="fill: #56433e;"/>
    <path d="M97.52-118.44c2.8,4.51,2.28,9.85,2.84,14.82.7,14.83.77,29.75-1.12,44.54-1.14,8.86-1.29,18.09-5.46,26.36-2.96,6.79-6.79,13.55-7.24,20.97,5.33-7.11,5.41-16.42,11.09-23.37,4.61-4.15,11.67-4.77,17.88-4.67-4.97,4.16-12.72,5.37-15.98,11.17-7.11,11.85-9.91,25.26-15.47,37.68-5.69,13.74-11.4,27.5-17.53,41.1,5.16-2.88,11.55-4.66,15.03-9.41l-.4,1.03c15.45-5.03,31.59-8.51,46.3-15.22,16.8-8.08,31.98-18.53,47.49-28.41,11.3-7.88,25.85-10.62,39.76-12.08,1.77,0,3.55.04,5.34.1-2.26,1.35-5.69,2.81-8.01,4.18-2.1,1.24-3.51.38-5.74,1.26-7.55,2.71-15.33,5.01-22.27,8.87-11.7,6.42-21.42,15.25-32.95,21.88-5.95,3.89-12.62,6.97-17.73,11.78,5.92-.26,11.98-.66,17.53-2.72,5.01-.29,9.73,1.55,14.08,3.59,10.19,4.79,20.03,10.17,30.29,14.85,3.96,1.16,8.18,1.04,12.29,1.42-4.27,2.51-9.58,4.55-14.7,3.16-13.09-3.4-24.38-10.67-37.19-14.69-11.97-3.19-24.17.99-35.59,4.07-17.92,6.02-35.63,12.8-51.85,21.97-21,12.65-40.9,27.28-56.29,45.43-10.85,12.16-16.09,28.98-10.77,44.14-3.84,3.14-7.53,6.44-10.97,9.93-6.51-12.31-13.27-24.54-20.33-36.62-12.17-26.47-20.77-54.14-31.39-81.13-2.47-5.51-4.36-11.18-6.46-16.8-1.39-1.61-2.91-3.11-4.29-4.71-4.76-15.78-11.23-31.08-16.61-46.7,4.11-3.91,4.51-9.31,5.38-14.34,12-27.82,25.82-54.95,37.78-82.79,3.5,2.71,4.26,6.95,4.85,10.84-3.3,9.64-8.08,18.8-11.73,28.33-3.37,8.83-8.69,17.1-10.5,26.37,3.11-2.84,4.31-6.74,5.82-10.38,3.05-7.67,6.65-15.15,9.95-22.75.88.31,1.79.63,2.69.95-2.96,9.77-5.67,19.62-9.99,28.99-4.36,13.41-10.77,26.55-11.29,40.71-1.35,21.73,7.16,42.48,14.42,62.84,3.89,12.04,8.88,23.77,14.07,35.4,1.94,4.02,3.78,8.31,7.36,11.43,4.66,3.53,10.62,5.22,16.38,6.77-.62-1.56-1.23-3.14-1.9-4.66C1.21,79.75,21.11,65.27,40.09,49.99c7.91-6.38,14.35-14.21,18.19-23.14,6.76-13.88,12.23-28.23,18.4-42.32,5.05-12.86,11.19-25.47,13.96-38.94,2.26-10.94,3.61-22.02,4.45-33.12,3.25-10.08,1.08-20.62,2.42-30.87M-64.41-50.71c-3.36,7.9-7.13,15.73-9.04,24.04,3.08-2.53,3.66-6.46,5.22-9.76,1.89-5.28,4.83-10.33,5.51-15.9-.42.41-1.28,1.21-1.69,1.62M31.65,67.69c-4.66,3.45-10.62,5.87-13.75,10.66,11.29-6.01,22.3-12.63,32.46-20.14,5.51-3.95,9.9-9.2,12.29-15.17-9.21,9.26-19.28,17.96-31,24.65M53.8,64.99c5.35-2.09,11.32-4.09,15.06-8.27-5.32,2.1-11.46,3.97-15.06,8.27M37.16,73.8c-1.52,1.18-3.88,2.09-4.07,4.12,3.49-.27,5.73-3.14,8.53-4.74,3.65-2.84,8.68-4.39,11.25-8.23-5.69,2.26-10.59,5.76-15.71,8.86M4.47,89.14c5.21-2.71,10.15-6.43,13.43-10.98-5.55,2.29-10.01,6.53-13.43,10.98M21.88,86.74c4.13-1.61,8.3-4.5,10.24-8.14-4.5,1.07-7.77,4.76-10.24,8.14h0Z" style="fill: #745853;"/>
    <path d="M16.49,426.28s25.32-27.97,21.4-38.05c-1.64-4.19.73,6.07.2,1.62-2.83-20.29,5.05-40.04,12.5-58.86,5.38-13.43,8.68-27.42,11.29-41.48h-.04c.12-.58.23-1.18.35-1.82,1.93-10.72,4.17-21.51,3.41-32.41-1.48-20.65-10.38-40.3-22.7-57.6-9.25-14.82-22.12-28.3-26.33-45.22-2.72-9.77-2.54-20.55,2.9-29.56,7.59-13.59,19.54-24.7,32.04-34.73,9.4-7.85,19.6-14.98,30.97-20.41,18.12-8.62,36.65-17.09,56.7-21.46l2.35-.59,1.16-.14c6.02-.84,12.1.29,17.76,2.14,11.22,3.68,21.79,8.83,33.06,12.36,4.01,1.42,7.85-1,11.5-2.22,11.85-4.85,24.35-8.7,35.37-15,3.52-2.49,7.13-4.87,10.42-7.59-4.98,1.53-9.8,3.44-14.9,4.63-13.56,3.29-26.81,7.84-40.66,9.99,3.96,1.16,8.18,1.04,12.29,1.42-4.27,2.51-9.58,4.55-14.7,3.16-13.09-3.4-24.38-10.67-37.19-14.69-11.97-3.19-24.17.99-35.59,4.07-17.92,6.02-35.63,12.8-51.85,21.97-21,12.65-40.9,27.28-56.29,45.43-10.85,12.16-16.09,28.98-10.77,44.14,3.26,8.42,7.56,16.8,14.43,23.38,4.93,4.61,10.18,8.95,14.95,13.72-4.63-.3-9.88-1.5-13.99,1.08-2.48,2.27-3.19,5.55-3.91,8.55-2.29,11.23,1.03,22.47,2.67,33.57,2.41,12.82,3.87,25.84,7.8,38.4,1.82,5.36,3.95,11.1,8.8,14.9,3.59,2.62,8.34.86,12.34.16-.28,1.67-.54,3.21-.77,4.62-.03,0-.06.02-.09.02-5.85,27.71-21.22,53.23-24.77,81.44-.65,6.06.1,12.14-.41,18.23-5.62-18.51-3.39-38.1.76-56.67,2.67-12.08,2.89-24.47,1.85-36.73,0,.01-.03.01-.04.01-.11-1.38-.24-2.75-.39-4.12-2.2,7.41-2.55,15.16-5.16,22.51-4.81,18.68-16.41,36.09-15.9,55.71.01.28.03.53.03.8.5,21.4,2.96,35.12,17.1,51.34l.05-.02ZM50.91,226.42c4.06,10.72,8.1,22.19,5.56,33.62-1.54,6.95-3.98,14.22-9.7,19.37-2.52,2.02-5.73,4.19-9.31,3.42-3.06-1.03-4.9-3.71-6.5-6.1-5.2-8.57-7.03-18.33-9.05-27.8-2.18-12.64-5.2-25.24-5.48-38.06.28-4.66.62-11.05,6.46-12.83,3.85-.89,7.22,1.74,10.28,3.46,9.5,5.7,13.7,15.77,17.73,24.92h0Z" style="fill: #57423d;"/>
  </g>
  <g id="Cord_4" data-name="Cord 4">
    <path d="M52.95,160.68c.19-.03.43-.06.71-.06.31,0,.59.03.8.07.06-25.91-.07-53.09.03-79,0,0-1.38.36-1.8,0,.59,5.71.21,11.7.31,17.52.13,20.5.1,40.99-.05,61.47h0Z" style="fill: #3a3a43;"/>
  </g>
  <g id="Cord_3" data-name="Cord 3">
    <path d="M156.69,49.16c.31-.04.7-.07,1.14-.07.51,0,.95.04,1.29.08.08-30.81-.11-63.14.04-93.95,0,0-2.2.43-2.88,0,.94,6.79.35,13.91.5,20.84.21,24.37.16,48.75-.08,73.1h-.01Z" style="fill: #3a3a43;"/>
  </g>
  <g id="Lantern_3" data-name="Lantern 3">
    <g>
      <path d="M157.41,48.8h0c-6.36.67-9.45,6.19-6.54,10.75.7,0,2.12-.05,2.82-.05-.52-1.81-1.77-3.88-.42-5.64,2.43-3.17,8.15-3.14,9.75.63,1.67,2.66-.99,5-2.87,6.68,1.16.09,2.33.16,3.52.19l.62-.24c1.91-2.12,2.25-5.34,1.11-7.86-1.11-2.6-3.31-4.18-7.99-4.45h0Z" style="fill: #424144;"/>
      <path d="M150.86,59.55h0c.19.41.57,1.25.76,1.67-2.32-.02-4.64.03-6.95.16-.31,2.4-.63,4.79-.98,7.19,9.43.16,18.9-.45,28.32.39-.32-2.56-.83-5.1-1.57-7.57-2.27.02-4.53.05-6.78-.04-1.18-.03-2.35-.1-3.52-.19-2.27-.11-4.45-.64-6.45-1.66-.7,0-2.12.04-2.82.05h-.01Z" style="fill: #505060;"/>
      <path d="M143.7,68.58l-.1,1.03c9.46-.42,19.02.79,28.42-.64-9.41-.84-18.88-.23-28.32-.39h0Z" style="fill: #212128;"/>
      <path d="M172.03,68.96h0c-9.4,1.44-18.96.22-28.42.64-4.37.76-8.47,3.12-10.85,6.71,11.71,1.36,23.53.05,35.28.66,4.87-.13,9.9,1.12,14.63-.43-2.19-3.89-6.62-5.79-10.64-7.57h0Z" style="fill: #515365;"/>
      <path d="M132.76,76.31c-.25.72-.77,2.16-1.04,2.88-1.62.14-3.27.19-4.79.75-1.25,1.36-.67,3.26.65,4.4,1.02-1.81,1.28-5.09,4.3-4.57,17.3.24,34.64.21,51.92-.56-.23-.69-.71-2.04-.94-2.73l-.19.06c-4.74,1.56-9.76.3-14.63.43-11.75-.61-23.57.7-35.28-.66h0Z" style="fill: #383944;"/>
      <path d="M183.79,79.24h0c-17.28.77-34.62.8-51.92.56-3.02-.52-3.28,2.76-4.3,4.57l-.07.16c.68.01,2.03.03,2.7.03l1.59.07c.3.47.89,1.42,1.19,1.89-.08-.49-.23-1.46-.3-1.95,3.92,0,7.83.02,11.75-.04.73,0,2.16-.02,2.87-.02h21.23c.67,0,2.01,0,2.68,0,4.03.05,8.08.05,12.12.05-.09.76-.25,2.27-.32,3.03.33-.92.71-1.8,1.13-2.67l1.56-.31c1.24-.21,2.44-.61,3.61-1.1.02-.75.05-2.25.06-3-1.54-1.33-3.6-1.55-5.57-1.3v.03Z" style="fill: #565762;"/>
      <path d="M130.2,84.52h0c2.58,14.89,5.1,29.79,8.47,44.53.47-.46,1.39-1.4,1.86-1.87-2.18-10.03-3.77-20.17-5.55-30.26-.68-3.47-1.41-6.94-2-10.43-.3-.47-.89-1.42-1.19-1.89l-1.59-.07h0Z" style="fill: #3c3834;"/>
      <path d="M132.67,84.55h0c.08.49.23,1.46.3,1.95.6,3.48,1.32,6.95,2,10.43,3.98.7,6.88-2.63,10.29-3.93-.28-2.84-.56-5.67-.83-8.5-3.92.06-7.83.04-11.75.04h-.01Z" style="fill: #f7be67;"/>
      <path d="M144.44,84.51c.27,2.83.55,5.66.83,8.5,1.29,12.21,1.92,24.47,3.57,36.65l1.48-.09c.08-.83.27-2.48.35-3.31-.7-11.01-2.07-21.97-2.75-32.98-.19-2.94-.4-5.87-.61-8.79-.71,0-2.15.02-2.87.02h0Z" style="fill: #252526;"/>
      <path d="M147.3,84.48h0c.22,2.92.43,5.85.61,8.79,6.67-.1,13.34.04,20.01.52.05-.73.18-2.17.23-2.9.11-2.14.23-4.28.38-6.4h-21.23Z" style="fill: #f4bc6c;"/>
      <path d="M168.53,84.49h0c-.15,2.13-.26,4.27-.38,6.4.86,1.1,1.64,2.26,2.23,3.53.04-.3.09-.89.12-1.19.26-2.91.5-5.82.71-8.73h-2.68Z" style="fill: #36383b;"/>
      <path d="M171.2,84.51h0c-.21,2.91-.44,5.82-.71,8.73,3.59.98,7.27,1.75,10.96,2.32.59-2.65,1.12-5.31,1.56-7.97.08-.76.24-2.27.32-3.03-4.04,0-8.09-.01-12.12-.05h0Z" style="fill: #f0ba6c;"/>
      <path d="M184.15,84.92h0c-.43.87-.8,1.75-1.13,2.67-.43,2.66-.97,5.32-1.56,7.97-1.12,5.13-1.99,10.31-3.02,15.47-1.13,6.18-3,12.31-2.79,18.66.34.1,1.02.3,1.36.4,2.53-15.22,5.7-30.34,8.69-45.49l-1.56.31h0Z" style="fill: #1c1b22;"/>
      <path d="M168.15,90.89h0c-.05.73-.18,2.17-.23,2.9-.97,10.5-2.19,20.99-3.11,31.5.06,1.7.21,3.41.35,5.12.54-.58,1.08-1.15,1.63-1.72,1-11.44,2.31-22.86,3.59-34.27-.6-1.27-1.37-2.43-2.23-3.53h0Z" style="fill: #1d1b21;"/>
      <path d="M134.99,96.93h0c1.78,10.09,3.36,20.23,5.55,30.26.17.68.51,2.02.68,2.7,2.53-.09,5.07-.14,7.62-.24-1.65-12.18-2.29-24.44-3.57-36.65-3.41,1.3-6.31,4.64-10.29,3.93h0Z" style="fill: #fdd784;"/>
      <path d="M147.92,93.27h0c.68,11.01,2.05,21.97,2.75,32.98.11,1.15.25,2.29.4,3.45,4.44-.05,8.88-.03,13.33.04.11-1.49.28-2.97.41-4.45.92-10.51,2.14-21,3.11-31.5-6.67-.48-13.34-.62-20.01-.52h0Z" style="fill: #fcd581;"/>
      <path d="M170.51,93.2h0c-.04.3-.09.89-.12,1.19-1.29,11.41-2.59,22.83-3.59,34.27l.21,1.02c2.88.08,5.75-.05,8.64,0-.21-6.34,1.65-12.47,2.79-18.66,1.03-5.16,1.91-10.34,3.02-15.47-3.7-.57-7.37-1.33-10.96-2.32v-.03Z" style="fill: #fcd685;"/>
      <path d="M164.37,129.76h0c-4.44-.07-8.88-.09-13.33-.04-.15-1.16-.28-2.3-.4-3.45-.08.83-.27,2.48-.35,3.31l-1.48.09c-2.55.1-5.08.15-7.62.24-.17-.68-.51-2.02-.68-2.7-.47.46-1.39,1.4-1.86,1.87-1.31,1.39-3.5,2.15-3.82,4.19l.46.05c3.61.41,7.24.78,10.89.64,10.16-.52,20.34-.26,30.5-.13.49-.8,1.45-2.38,1.93-3.17l-1.62-.55c-.34-.1-1.02-.3-1.36-.4-2.89-.06-5.76.07-8.64,0l-.21-1.02c-.55.56-1.09,1.13-1.63,1.72-.14-1.71-.29-3.42-.35-5.12-.12,1.48-.29,2.96-.41,4.45l-.02.02Z" style="fill: #545463;"/>
      <path d="M178.62,130.66h0c-.48.79-1.44,2.37-1.93,3.17-10.16-.13-20.34-.39-30.5.13-3.65.14-7.28-.23-10.89-.64.8,2.4,3.68,2.04,5.82,2.26,10.95.32,21.89-.51,32.84,0,1.91-.22,4.52.55,5.74-1.28.41-1.39-.14-2.62-1.07-3.66v.02Z" style="fill: #36363d;"/>
      <path d="M141.12,135.55h0c-.08,1.16-.16,2.32-.22,3.5,11.03-.06,22.11.4,33.11-.49-.01-.75-.03-2.24-.05-3-10.95-.5-21.89.33-32.84,0h0Z" style="fill: #50525f;"/>
      <path d="M140.9,139.06h0l.08,1.46c10.97.11,21.93-.22,32.91-.17.04-.44.09-1.33.12-1.78-11,.89-22.08.43-33.11.49h0Z" style="fill: #34353f;"/>
    </g>
  </g>
  <g id="Lantern_4" data-name="Lantern 4">
    <g>
      <path d="M53.05,160.5c-3.67.56-5.41,4.97-2.86,7.56.72,0,1.45,0,2.17,0-1.39-.99-2.48-2.85-1.34-4.38,1.46-1.91,4.72-1.61,6.01.33.37-.1,1.11-.28,1.48-.38-.63-1.48-2.14-3.51-5.45-3.12" style="fill: #2c2b32;"/>
      <path d="M58.69,163.6l-.18.04c-.37.1-1.11.28-1.48.38.16,1.39-.18,2.96-1.52,3.77-1.04.22-2.09.26-3.15.28-.72,0-1.45,0-2.17,0-1.45-.03-2.9.15-4.33.39-.3,1.77-.57,3.55-.85,5.32-2.88-.16-5.34,1.61-6.63,3.91,3.27.7,6.62.23,9.93.25,5.43-.02,10.85.29,16.28.32,1.55.05,3.05-.33,4.49-.83-1.5-1.84-3.65-3.3-6.14-3.58-5.6-.83-11.4.34-16.92-.93,5.5-.65,11.07-.29,16.59-.34-.14-1.41-.36-2.8-.65-4.18-1.37-.07-2.76-.12-4.13-.12.87-1.44,1.13-3.08.87-4.71h0v.02Z" style="fill: #525161;"/>
      <path d="M46.03,172.92h0c5.51,1.27,11.32.1,16.92.93-.09-.32-.26-.95-.34-1.27-5.53.05-11.09-.3-16.59.34h0Z" style="fill: #302f38;"/>
      <path d="M38.38,177.68c-.21.61-.42,1.22-.62,1.83,1.36.13,2.73.19,4.1.17,9.39-.16,18.78,0,28.16-.17-.31-.7-.63-1.4-.94-2.09-1.44.51-2.95.89-4.49.83-5.43-.03-10.85-.34-16.28-.32-3.31-.02-6.67.45-9.93-.25h0Z" style="fill: #3c3c45;"/>
      <path d="M34.39,180.65h0c.2,1.29,1.18,1.92,2.52,2.05,1.77,9.44,3.24,18.93,5.4,28.3.37-.05.75-.09,1.13-.13-1.5-7.3-2.81-14.64-3.98-22-.37-2.03-.73-4.05-1-6.08-1.96-.25-3.18-1.57-3.28-3.4-.2.31-.59.93-.79,1.25h0Z" style="fill: #1e1d1e;"/>
      <path d="M35.19,179.39h0c.1,1.83,1.33,3.15,3.28,3.4,2.4.04,4.81-.07,7.21.02.08.2.23.59.31.79.22-.28.65-.85.86-1.14.24,1.02.51,2.05.72,3.08-.05-.92-.08-1.84-.1-2.75,4.33,0,8.66,0,12.99,0h1.75c2.43.05,4.92-.19,7.32.31.23.05.68.14.91.19.04.17.13.51.18.68l.05.17c.15-.35.47-1.04.63-1.38,1.58-.19,2.11-1.38,1.86-2.73-.97-.45-2.05-.61-3.13-.52-9.39.17-18.77.02-28.16.17-1.38.03-2.74-.04-4.1-.17-.87-.07-1.73-.12-2.59-.12h0Z" style="fill: #555561;"/>
      <path d="M45.98,183.6h0c.19,1.44.27,2.9.37,4.36.64,7.58,1.25,15.17,1.9,22.75h1.45c-.63-7.43-1.34-14.85-1.91-22.28-.08-.97-.15-1.94-.23-2.9-.21-1.04-.47-2.06-.72-3.08-.22.28-.65.85-.86,1.14h0Z" style="fill: #212127;"/>
      <path d="M60.47,182.78h0c-.13,2.33-.33,4.65-.53,6.98-.56,7.03-1.73,14.03-1.86,21.09.41,0,.83,0,1.25,0,.65-6.74,1.29-13.48,2.14-20.2.05-.93.13-1.87.23-2.79.18-1.7.35-3.4.51-5.1h-1.75s.01.01.01.01Z" style="fill: #2f2e38;"/>
      <path d="M38.46,182.79c.27,2.03.62,4.06,1,6.08,2.34.12,4.66-.27,6.89-.91-.1-1.46-.18-2.92-.37-4.36-.08-.2-.23-.59-.31-.79-2.4-.09-4.81.02-7.21-.02h0Z" style="fill: #f7c16b;"/>
      <path d="M47.46,182.78h0c.02.92.05,1.83.1,2.75.08.96.15,1.93.23,2.9,3.45-.14,6.9-.09,10.33.28.78.04,1.38.39,1.81,1.05.2-2.33.4-4.65.53-6.98-4.33,0-8.66,0-12.99,0h0Z" style="fill: #f5bc6c;"/>
      <path d="M62.2,182.78h0c-.15,1.7-.32,3.4-.51,5.1,2.22.45,4.45.79,6.7,1.09.42-1.96.8-3.92,1.14-5.88-2.4-.5-4.88-.25-7.32-.31h0Z" style="fill: #f0bd6d;"/>
      <path d="M69.53,183.08h0c-.34,1.97-.72,3.92-1.14,5.88-.47,2.19-.87,4.41-1.4,6.6-.84,5.09-1.87,10.15-2.81,15.23.32.07.95.22,1.26.29,1.53-9.07,3.35-18.1,5.18-27.12-.04-.17-.13-.51-.18-.68-.23-.05-.68-.14-.91-.19h0Z" style="fill: #110f16;"/>
      <path d="M39.46,188.86c1.17,7.36,2.48,14.7,3.98,22,1.59-.14,3.2-.16,4.81-.16-.65-7.58-1.26-15.17-1.9-22.75-2.23.63-4.55,1.03-6.89.91h0Z" style="fill: #fbd484;"/>
      <path d="M61.68,187.88h0c-.1.93-.18,1.86-.23,2.79.62,2.28.69,4.63.29,6.95-.58,3.72-.54,7.5-.14,11.24,3.49-3.74,2.27-9.39,5.39-13.29.53-2.19.92-4.4,1.4-6.6-2.25-.3-4.49-.64-6.7-1.09h0Z" style="fill: #facf80;"/>
      <path d="M47.79,188.43c.57,7.43,1.28,14.85,1.91,22.28,2.79-.03,5.58,0,8.37.14.13-7.06,1.31-14.06,1.86-21.09-.43-.66-1.03-1.01-1.81-1.05-3.43-.37-6.88-.42-10.33-.28h0Z" style="fill: #fdd480;"/>
      <path d="M61.47,190.66h0c-.86,6.72-1.49,13.46-2.14,20.2,1.62-.02,3.24-.1,4.86-.06.94-5.08,1.97-10.14,2.81-15.23-3.12,3.9-1.9,9.55-5.39,13.29-.41-3.74-.44-7.52.14-11.24.39-2.32.32-4.68-.29-6.95h0Z" style="fill: #ffde92;"/>
      <path d="M42.31,210.97h0l-1.28.17c.12.41.36,1.23.48,1.63,7.7.55,15.46.57,23.17.34.53-.6,1.06-1.21,1.59-1.8l-.83-.23c-.32-.08-.95-.22-1.26-.29-1.62-.04-3.24.04-4.86.06-.42,0-.84,0-1.25,0-2.79-.13-5.58-.16-8.37-.14h-1.45c-1.6,0-3.21.02-4.81.16-.38.04-.76.08-1.13.13v-.02Z" style="fill: #535262;"/>
      <path d="M40.56,213.6h0c.77.92,2.15.55,3.23.73,6.54.4,13.1-.31,19.64.21,1.27-.13,3.01.21,3.79-1,.32-.93-.28-1.62-.94-2.21-.53.59-1.06,1.19-1.59,1.8-7.72.23-15.47.22-23.17-.34-.12-.41-.36-1.22-.48-1.63-.61.71-.98,1.53-.49,2.43h.01Z" style="fill: #3a3a42;"/>
      <path d="M43.78,214.32v2.16c6.66,0,13.36.27,20-.27-.09-.42-.27-1.26-.36-1.68-6.54-.52-13.1.19-19.64-.21h0Z" style="fill: #52535f;"/>
      <path d="M43.79,216.48h0v.88c6.65.06,13.31.01,19.97-.06.01-.27.02-.82.02-1.09-6.65.55-13.34.27-20,.27h0Z" style="fill: #35363f;"/>
    </g>
  </g>
</svg>