<?xml version="1.0" encoding="UTF-8"?>
<svg id="Birds" xmlns="http://www.w3.org/2000/svg" viewBox="0 0 3257 1845.63">
  <defs>
    <style>
      .cls-1 {
        fill: #335f6a;
      }
    </style>
  </defs>
  <path class="cls-1" d="M2239.57,608.08c-.34.2,1.28-8.81-2.77-13.18,0,0,5.14.95,5.33,9.11,0,0,7.57-.51,10.71,5.8,0,0-8.09-4.83-13.27-1.73Z"/>
  <path class="cls-1" d="M2345.42,559.29c-.2.18-.29-6.06-3.57-8.45,0,0,3.57-.04,4.75,5.4,0,0,4.99-1.33,7.93,2.48,0,0-6.04-2.17-9.11.58Z"/>
  <path class="cls-1" d="M2209.49,698.22c-.46.39-.29-13.6-7.49-19.16,0,0,7.99.13,10.32,12.38,0,0,11.27-2.68,17.61,6.04,0,0-13.41-5.23-20.44.74Z"/>
  <path class="cls-1" d="M2367.84,671.96c-.06.61-9.69-9.54-18.73-8.51,0,0,5.82-5.48,16.03,1.67,0,0,6.21-9.78,16.83-7.95,0,0-13.26,5.61-14.14,14.78Z"/>
  <path class="cls-1" d="M2430.74,856.22c.21.3,2.25-8.01,7.37-10.2,0,0-4.75-1.14-8.01,5.75,0,0-6.27-3.31-11.35.88,0,0,8.74-1.04,11.99,3.56Z"/>
  <path class="cls-1" d="M2362.94,792.23c.1.45,6.39-8.14,13.31-8.23,0,0-4.92-3.57-11.93,2.82,0,0-5.63-6.78-13.47-4.37,0,0,10.55,2.94,12.1,9.78Z"/>
  <path class="cls-1" d="M2239.83,841.16c-.33.98,21.68-8.14,35.03-.27,0,0-5.26-12.55-26.1-8.49,0,0-2.89-19.52-20.69-24.02,0,0,16.75,17.9,11.76,32.78Z"/>
</svg>