<?xml version="1.0" encoding="UTF-8"?>
<svg id="Clouds" xmlns="http://www.w3.org/2000/svg" viewBox="0 0 3257 1845.63">
  <defs>
    <style>
      .cls-1 {
        fill: #fff;
        opacity: .56;
      }
    </style>
  </defs>
  <path class="cls-1" d="M2363.81,704.57c7.57-.81,15.3-3.96,20.47-6.47,9.51-6.22,20.87-9.85,33.08-9.85,2.15,0,4.26.12,6.35.34,4.28-11.36,15.24-19.44,28.1-19.44,5.38,0,10.43,1.42,14.8,3.9,5.6-4.56,12.75-7.3,20.54-7.3,1.45,0,2.87.1,4.27.29,6.91-9.37,18.02-15.45,30.56-15.45,3.65,0,7.17.52,10.5,1.48,7.87-4.62,17.03-7.28,26.82-7.28,26.05,0,47.71,18.77,52.23,43.51.42-.02.84-.05,1.27-.05,6.9,0,13.41,2.38,19.16,6.57v-.03s11.82,8.38,23.22,9.77c11.4,1.39,62.14,1.54,66.53,4.58h-214.31s-17.28,0-17.28,0h-9.99s-56.64,0-56.64,0c0,0,0,0,0,0h-135.96c5.03-3.04,63.21-3.19,76.28-4.58Z"/>
</svg>