<?xml version="1.0" encoding="UTF-8"?>
<svg id="Clouds" xmlns="http://www.w3.org/2000/svg" viewBox="0 0 3257 1845.63">
  <defs>
    <style>
      .cls-1 {
        fill: #fff;
        opacity: .56;
      }
    </style>
  </defs>
  <path class="cls-1" d="M326.49,565.87c10.47-1.02,21.2-5.55,26.93-8.31,9.73-5.82,21.11-9.17,33.27-9.17,3.39,0,6.7.28,9.95.78,5.3-9.45,15.41-15.85,27.02-15.85,4.24,0,8.28.85,11.96,2.4,6.38-7.03,15.6-11.44,25.84-11.44,1.55,0,3.07.11,4.57.31,7.4-10.04,19.31-16.56,32.75-16.56,4.09,0,8.04.61,11.76,1.73,10.48-8.35,23.75-13.35,38.19-13.35,19.77,0,37.35,9.36,48.58,23.89,4.04-1.25,8.34-1.93,12.79-1.93,19.3,0,35.64,12.64,41.2,30.09,3.64.22,7.17,1.03,10.55,2.41,2.07.61,3.98,1.62,5.64,2.92.82.51,1.63,1.06,2.43,1.64v-.03s12.66,8.97,24.87,10.47c12.21,1.49,66.58,1.65,71.28,4.91h-150.95,0s-6.41,0-6.41,0H237.23c5.89-3.26,73.97-3.42,89.26-4.91Z"/>
</svg>