<?xml version="1.0" encoding="UTF-8"?>
<svg id="Clouds" xmlns="http://www.w3.org/2000/svg" viewBox="0 0 3257 1845.63">
  <defs>
    <style>
      .cls-1 {
        fill: #fff;
        opacity: .56;
      }
    </style>
  </defs>
  <path class="cls-1" d="M1191.82,303.89c-16.07-1.37-32.74-9.63-32.74-9.63v.03c-8.12-4.13-17.29-6.47-27.03-6.47-8.1,0-15.81,1.62-22.85,4.55-2.56-1.83-5.69-2.91-9.08-2.91-1.97,0-3.84.38-5.58,1.04-3.29-14.23-16.03-24.85-31.26-24.85-1.43,0-2.83.1-4.2.28-6.81-9.23-17.76-15.23-30.11-15.23-8.68,0-16.67,2.97-23.01,7.93-4.38-3.87-10.13-6.23-16.44-6.23-2.23,0-4.39.3-6.44.85-12.22-15.67-31.26-25.76-52.67-25.76-35.49,0-64.5,27.69-66.63,62.64-1.45-.44-2.98-.68-4.58-.68-8.66,0-15.67,7.02-15.67,15.67,0,1.13.12,2.22.35,3.28h441.77c-6.19-3-77.75-3.15-93.82-4.52Z"/>
</svg>