<?xml version="1.0" encoding="UTF-8"?>
<svg id="Trees_1" data-name="Trees 1" xmlns="http://www.w3.org/2000/svg" viewBox="0 0 3257 1845.63">
  <defs>
    <style>
      .cls-1 {
        fill: #272a30;
      }
    </style>
  </defs>
  <path class="cls-1" d="M-.02,1845.63V624.57c28.23,1.86,57.9,3.04,80.23,5.22,46.34,4.53,97.32,8.08,142.09,14.12,19.92,2.69,31.16,5.18,52.7,6.46,29.25,1.74,34.45,5.44,58.18,9.49,16.76,2.86,41.13,2.63,59.06,5.34,13.38,2.02,21.51,4.86,34.82,7.28,27.79,5.06,66.38,7.25,98.08,4.75,19.51-1.54,28.89-5.8,46.16-7.7,27.85-3.08,73.71-1.48,103.94-1.91,41.48-.58,75.03-.81,112.61,3.68,59.73,7.14,123.33,4.17,185.9,7.41,44.12,2.29,80.6,7.3,125.34,7.41,35.32.08,71.61-1.01,106.45,1.1,37.63,2.27,74.22,5.39,112.47,7.29,40.11,1.99,117.23-1.2,136.83,11.69,29.51,2.14,58.97,5.36,88.38,7.87,32.33,2.76,56.89,9.5,89.05,13.53,76.01,9.54,181.06,7.69,261.5,5.67,56.08-1.41,114.25-7.37,169.99-10.52,30.92-1.75,64.74-5.84,94.53-7.01,47.75-1.88,104.68,2.83,144.54,8.8,39.81,5.97,93.05,9.42,138.73,9.95,20.74.24,25.92-2.27,43.02-4.74,40.6-5.87,65.23-6.99,108.58-6.99,25.71,0,50.94-1.77,76.91-1.75,25.22.02,53.63,2.32,77.69,1.77,28.88-.65,30.06-5.04,45.44-11.21,19.32-7.76,37.23-6.26,68.83-6.26,47.07,0,93.9,3.49,139.13,2.42,85.85-2.03,172.82-6.67,255.87-11.9v1149.79S-.02,1845.63-.02,1845.63Z"/>
</svg>