<?xml version="1.0" encoding="UTF-8"?>
<svg id="MAIN" xmlns="http://www.w3.org/2000/svg" xmlns:xlink="http://www.w3.org/1999/xlink" viewBox="0 0 1920 1088">
  <defs>
    <style>
      .cls-1 {
        fill: url(#linear-gradient-2);
      }

      .cls-2 {
        fill: url(#linear-gradient);
      }
    </style>
    <linearGradient id="linear-gradient" x1="-13044.31" y1="1478.31" x2="-11418.9" y2="-379.4" gradientTransform="translate(-11650.56) rotate(-180) scale(1 -1)" gradientUnits="userSpaceOnUse">
      <stop offset=".01" stop-color="#fff"/>
      <stop offset=".5" stop-color="#fff4e8"/>
      <stop offset="1" stop-color="#ffd9a7"/>
    </linearGradient>
    <linearGradient id="linear-gradient-2" x1="-12707.64" y1="704.08" x2="-12701.29" y2="704.08" gradientTransform="translate(-11650.56) rotate(-180) scale(1 -1)" gradientUnits="userSpaceOnUse">
      <stop offset="0" stop-color="#fff4e8"/>
      <stop offset=".41" stop-color="#ffe5c6"/>
      <stop offset=".77" stop-color="#ffdcaf"/>
      <stop offset="1" stop-color="#ffd9a7"/>
    </linearGradient>
  </defs>
  <path class="cls-2" d="M0,98.67c9.54-.76,18.97-1.91,24.37-1.85,10.03.12,20.19.7,30.22.36,16.92-.59,29.01,4.47,45.51,4.6.47,1.07.16,1.83,1.16,2.64,7.36,5.97,12.7,26.93,17.8,35.43,3.46,5.77,7.1,11.41,10.84,16.97-3.81,6.77-6.93,13.88-8.33,16.38-13.22,23.5-23.87,47.49-32.22,72.99-8.81,26.89-20.67,63.23-17.19,91.71,1.94,1.18,3.75,1.49,5.94,1.46,4.37-24.76,11.04-48.78,19.49-72.12-3.89,46.94,4.49,94.83,24.41,137.57.36.77,1.27,1.1,2.04.74.55-.26.88-.8.88-1.37,0-.22-.04-.45-.14-.66-21.35-45.79-29.28-97.56-22.91-147.64,11.03-28.27,24.63-55.56,39.9-82.01,6.8,9.53,13.72,18.97,20.44,28.58,23.91,34.2,47.66,68.56,72.78,101.77,2.91,29.19,9.82,56.2,11.51,87.26,1.41,26.08-1.19,53.21-2.14,80.09-41.11,37.6-88.92,79.46-142.85,92.49,1.11,16.37,59.24-15.55,66.91-19.92,2-1.14,4.51-2.48,7.39-4-15.94,24.68-43.87,41.15-73.32,42.65-.84.04-1.49.75-1.45,1.61.04.85.76,1.5,1.61,1.45,32.15-1.63,62.55-20.53,78.43-48.47.97-.51,1.97-1.03,2.99-1.57l-10.16,20.46c-.37.75-.07,1.68.69,2.05.76.38,1.68.07,2.05-.69l9.32-18.76c-10.57,51.57-13.19,104.13-7.79,156.57-7.51,14.38-16.71,27.78-29.06,38.34-.64.55-.72,1.52-.17,2.16.55.64,1.52.72,2.16.17,11.55-9.87,20.38-22.1,27.65-35.26.09.82.17,1.65.27,2.47.1.84.86,1.44,1.7,1.34.84-.1,1.45-.87,1.34-1.7-.27-2.3-.5-4.6-.74-6.91,4.7-9.09,8.74-18.54,12.47-27.9,1.59-3.99,3.15-8.01,4.71-12.03,5.37-13.84,10.87-27.99,17.84-41.26-2.24,10.9-3.24,22.02-2.87,33.07.03.85.74,1.51,1.58,1.48.85-.03,1.49-.74,1.48-1.58-.48-14.35,1.39-28.82,5.35-42.74,1.88-3.08,3.86-6.09,5.97-9.01.19-.27.29-.57.29-.88,0-.48-.21-.96-.63-1.26-.66-.48-1.55-.34-2.07.28,5.83-15.7,14.35-30.41,25.16-43.06.48,5.32,1.25,10.6,2.32,15.8-.09,7.38-.08,14.77.05,22.17-.4-.6-1.16-.87-1.85-.58-.78.33-1.14,1.23-.81,2.01.93,2.21,1.89,4.4,2.85,6.59.32,10.5.91,21,1.91,31.44,1.98,20.65,5.47,39.92,10.45,57.7-9.3,23.38-14.15,48.38-14.5,73.45-2.18,30.47.68,61.3,8.68,90.72.22.82,1.06,1.3,1.88,1.08.82-.22,1.3-1.07,1.08-1.88-4.58-16.84-7.45-34.14-8.64-51.58,2.26,13.13,5.78,26.06,10.58,38.54.3.79,1.19,1.18,1.98.88.79-.3,1.18-1.19.88-1.98-9.28-24.13-13.73-49.93-13.38-75.67,1.63-22.75,6.11-45.29,13.41-66.85,2.61,8.5,5.59,16.62,8.9,24.39-.08.17-.13.35-.14.55-2.36,49.01,22.07,98.75,62.31,126.78.69.48,1.65.31,2.13-.38.18-.26.27-.56.28-.86,0-.49-.22-.97-.66-1.28-37.88-26.38-61.46-72.43-61.14-118.56,1.85,3.98,3.79,7.86,5.83,11.64.4.74,1.33,1.02,2.08.62.51-.27.8-.79.8-1.33,0-.25-.06-.51-.18-.75-7.48-13.83-13.64-29.15-18.48-45.82.03-.12.06-.24.07-.36,0-.44-.19-.85-.51-1.14,0-.01,0-.03-.01-.04.39-.96.77-1.93,1.18-2.89.08-.19.12-.38.12-.58,0-.6-.35-1.18-.94-1.43-.57-.24-1.19-.1-1.62.28-4.41-16.6-7.55-34.47-9.38-53.55-.76-7.91-1.27-15.85-1.62-23.81,29.97,64.35,75.58,120.46,132.63,162.93.68.51,1.64.36,2.14-.31.2-.27.3-.58.3-.9,0-.47-.21-.94-.62-1.25-58.62-43.65-105.09-101.8-134.75-168.51-.28-9.58-.33-19.17-.23-28.74.05-.15.08-.3.08-.46,0-.11,0-.22-.03-.33-.02-.07-.03-.15-.04-.22.08-6.98.24-13.94.44-20.88.74.23,1.52.44,2.4.58-.25-20.21.61-40.5,2.14-60.8,5.89,32.94,19.08,65.92,38.83,96.72,21.96,34.24,52.4,66.51,90.47,95.91.67.52,1.63.39,2.15-.28.21-.27.31-.6.32-.92,0-.47-.2-.93-.6-1.23-37.79-29.18-67.99-61.19-89.76-95.14-22.11-34.48-35.9-71.69-40.31-108.47,3.07-34.51,7.83-68.99,12.22-103.05.61-4.7,1.86-10.44,2.55-15.99,7.91,7.85,16.04,15.04,24.2,20.96,7.57,5.49,16.51,9.65,24.16,14.41,6.99,4.35,10.99,4.81,15.73,2.93,7.44,7.33,17.27,14.64,24.98,20.27,16.02,11.71,34.03,26.93,51.57,35.68,1.05,3.99,3.78,8.73,7.36,12.73,3.75,25.2,25.34,49.83,38.95,69.9,2.45,3.61,4.92,7.24,7.4,10.88,1.14,16.83-.11,33.97-3.75,50.31-.18.82.34,1.64,1.16,1.83.82.18,1.64-.34,1.83-1.16,2.7-12.13,4.12-24.4,4.27-36.7.04-3.11-.02-6.23-.15-9.34,7.14,10.46,14.39,21.01,21.68,31.48-.08.41,0,.84.26,1.2,13.12,17.57,24.19,36.69,32.89,56.82.34.78,1.24,1.13,2.01.8.57-.25.92-.8.92-1.39,0-.21-.04-.42-.13-.63-4.66-10.77-10-21.25-15.95-31.36,11.14-2.51,1.37-11.61-3.06-17.56-6.63-8.91-12.86-17.94-18.79-27.09,5.73,4.16,11.87,7.75,18.35,10.68.77.35,1.68,0,2.03-.76.09-.2.13-.41.14-.61,0-.59-.33-1.16-.9-1.41-8.95-4.05-17.22-9.36-24.64-15.79-13.66-21.89-25.62-44.5-36.61-68.01,12.94-2.07,39.69,8.59,48.92,10.49,22.7,4.7,45.35,13.22,68.67,16.49,7.23,1.02,31.99,7.03,56.11,10.76,15.76,16.12,35.06,28.42,56.45,35.86,25.15,8.75,52.21,10.46,78.26,4.94.71-.15,1.21-.78,1.21-1.48,0-.11,0-.22-.03-.34-.17-.83-.99-1.36-1.82-1.18-25.5,5.4-52,3.73-76.62-4.84-19.64-6.83-37.49-17.86-52.36-32.22,23.37,3.29,44.91,3.9,47.72-4.95-19.17-1.26-38.94-3.27-58.27-6.4-.05-.06-.11-.13-.16-.19-.54-.65-1.5-.74-2.15-.2-5.68-.95-11.32-1.98-16.88-3.13-.21-.7-.87-1.19-1.62-1.1-.86.1-1.73.16-2.6.23-51.01-10.61-109.18-22.86-154.54-48.77-.21-4.77-.59-9.49-2.51-12.3-3.63-5.32-9.52-4.39-15.2-7.04-26.31-12.24-48.06-33.59-67.35-54.98,23.8-13.39,49.59-24.74,72.43-38.58,4.81-2.91,7.47-5.85,9.33-9.21,7.41-1.19,15.07-.79,22.34,1.28.81.23,1.66-.24,1.89-1.05.04-.13.06-.27.06-.4,0-.67-.43-1.3-1.11-1.49-7.04-2.01-14.42-2.53-21.63-1.64.09-.22.17-.44.26-.66,4.67-1.96,9.28-4.47,14.19-7.97,18.07-2.74,37.08-.82,54.15,5.58.79.3,1.67-.1,1.97-.9.06-.17.1-.35.1-.52,0-.63-.37-1.22-.99-1.45-15.87-5.95-33.38-8.14-50.33-6.42,1.12-.9,2.25-1.85,3.41-2.86,27.64-24.06,59.62-48.13,93.05-65.87,7.3.86,13.42,2.43,20.65,6.97,22.45,14.08,39.46,34.58,61.88,48.74,23.76,15,50.69,25.94,75.38,38.67,8.84,4.56,18.42,7.61,26.73,13.09,7.01,4.62,13.24,13.23,20.98,16.28.12.05.25.09.38.13,1.19,8.65,9.89,17.57,17.56,26.34,15.67,17.91,28.56,33.62,39.32,55.84,2.49,5.14,5.21,10.15,8.09,15.07-2.43,3.01-4.87,9.53-6.38,11.82-9.79,14.82-14.68,28.93-19.77,45.9-6.46,21.54-16.06,44.61-22.72,67.67-25.54,16.05-46.36,38.55-60.34,65.34-14.59,27.94-21.13,59.32-18.91,90.76.06.84.79,1.48,1.64,1.42.84-.06,1.47-.8,1.42-1.64-2.17-30.87,4.25-61.69,18.57-89.13,13.2-25.29,32.62-46.7,56.38-62.32-3.54,13.05-6.02,26.05-6.31,38.75,2.03.5,3.71.24,5.12-.54-1.88,18.45-2.18,35.31-.94,51.41,1.88,24.56,7.61,47.48,16.74,67.52-.56,4.71-1.34,9.41-2.43,14.07-.19.82.32,1.65,1.14,1.84.82.19,1.65-.32,1.84-1.14.75-3.22,1.36-6.46,1.86-9.7,2.92,5.87,6.12,11.49,9.64,16.79.47.7,1.42.9,2.12.43.44-.29.68-.77.68-1.26,0-.3-.08-.6-.26-.86-4.27-6.43-8.08-13.33-11.45-20.61.61-5.41.93-10.82.99-16.21.07-6.03-.16-12.03-.61-17.95,33.46,50.8,83.33,91.51,139.87,113.51.79.31,1.68-.08,1.98-.87.07-.18.1-.36.1-.54,0-.62-.36-1.21-.98-1.45-57.74-22.47-108.46-64.66-141.56-117.2-1.06-10.53-2.69-20.76-4.35-30.42-.67-3.92-1.37-7.83-2.07-11.76-.97-5.43-1.94-10.9-2.86-16.4.45.85.91,1.68,1.39,2.51,8.17,13.9,21.73,24.51,37.18,29.1.81.24,1.66-.22,1.9-1.03.04-.14.06-.28.06-.42,0-.67-.42-1.29-1.1-1.49-14.72-4.37-27.63-14.47-35.41-27.71-2.67-4.55-4.71-9.45-6.13-14.53-.68-4.91-1.28-9.84-1.73-14.77,1.7-5.86,2.33-12.83,3.33-16.55,12.41-46.14,26.15-92.14,46.55-135.35,4.63,7.39,9.59,14.58,14.73,21.66-.55.63-.48,1.6.15,2.15,1.26,1.1,2.54,2.16,3.81,3.24,4.07,5.47,8.22,10.88,12.36,16.27-.28.3-.46.7-.44,1.14,3.7,67.46,22.22,134.75,53.58,194.59.39.75,1.32,1.04,2.07.65.52-.27.81-.8.82-1.34,0-.25-.05-.5-.18-.73-30.75-58.68-49.07-124.55-53.07-190.69,1.05,1.36,2.1,2.73,3.14,4.09l19.21,38.4c.38.76,1.3,1.06,2.05.68.53-.27.84-.8.85-1.35,0-.24-.05-.48-.16-.7l-11.79-23.56c1.94,2.62,3.85,5.24,5.73,7.88,1.51-.83,3.62-2.78,4.65-4.26-1.16-2.41-2.4-4.82-3.69-7.21l9.11,8.65c38.04,42.7,69.94,90.3,95.06,142.01.37.76,1.29,1.08,2.05.71.54-.26.86-.8.86-1.36,0-.23-.05-.46-.15-.69-21.04-43.3-46.82-83.73-76.95-120.84l15.49,14.72c-.1.06-.21.11-.29.2-.59.6-.58,1.57.02,2.17,46.7,45.83,87.26,97.63,120.56,153.95.43.73,1.37.97,2.1.54.48-.28.75-.78.75-1.3,0-.27-.07-.55-.21-.8-28.18-47.67-61.56-92.09-99.43-132.44l3.39,3.22c22.24,21.13,45.24,42.97,73.67,56.43.76.36,1.68.04,2.04-.73.1-.21.14-.42.15-.64,0-.58-.32-1.14-.88-1.4-27.99-13.25-50.81-34.92-72.87-55.88l-63.14-59.98c-4.89-5.49-9.89-10.88-14.98-16.2,33.57,23.23,70.78,41.53,109.55,53.65.81.25,1.67-.2,1.92-1.01.05-.15.07-.29.07-.44,0-.66-.41-1.27-1.07-1.48-42.19-13.19-82.52-33.73-118.26-60.04-7.65-11.66-16.02-23.09-23.62-34.13-1.23-1.79-2.42-3.6-3.63-5.4,35.55,10.92,67.12,24.9,100.24,43.91,18.53,10.63,34.07,25.81,51.39,37.67.21-.13.39-.27.58-.41,5.79,6.15,11.35,13.28,16.75,21.51,7.62,11.61,14.18,24.17,20.52,36.32,1.76,3.38,3.53,6.76,5.32,10.13,3.15,5.93,6.61,12.25,10.39,18.76-.47.07-.91.33-1.15.79-.39.75-.09,1.68.66,2.06,1.03.53,2.06,1.06,3.09,1.58,12.07,20.29,27.29,42.06,46.6,60.12.62.58,1.59.55,2.17-.07.27-.29.41-.66.41-1.03,0-.42-.16-.83-.48-1.14-17.75-16.6-32.03-36.44-43.57-55.33,7.53,3.66,15.35,6.92,23.74,8.42,13.05,2.32,25.22-.43,33.37-7.56.34-.3.52-.72.52-1.14,0-.36-.12-.73-.38-1.03-.56-.64-1.52-.7-2.16-.15-7.34,6.42-18.86,8.97-30.81,6.85-9.59-1.71-18.56-5.89-27.22-10.28-4.6-7.76-8.75-15.3-12.47-22.31-1.79-3.36-3.55-6.73-5.31-10.11-6.37-12.22-12.97-24.85-20.67-36.58-5.59-8.52-11.36-15.9-17.38-22.25.86-2.23,0-5.03-2.09-8.21,11.84,4.5,24.03,8.31,36.75,9.8,21.42,2.51,41.27-2.66,54.46-14.18.34-.3.52-.72.52-1.14,0-.36-.12-.73-.38-1.02-.56-.64-1.52-.7-2.16-.15-12.54,10.95-31.53,15.86-52.09,13.45-14.14-1.65-27.72-6.28-40.91-11.52-16.43-17.96-60.12-43.05-66.48-46.42-.09-.05-.19-.1-.29-.15,39.86-7.42,81.26-17.81,121.84-17.93-3.14-1.94-4.74-6.9-6.09-11.32-17.13-.27-37.43,9.49-55.15,11.61-25.19,3.02-48.9,5.55-72.62,11.47-25.3-12.58-53.57-23.96-80.9-30.3-18.02-27.85-34.94-56.64-51.71-85.23,2.54,1.58,5.09,3.21,8.07,3.5,8.04.77,24.66-4.76,35.7-11.34,3.12-.09,6.27-.25,9.46-.51,54.48,9.42,112.09,3.31,163.27-17.47.59-.24.95-.8.96-1.4,0-.2-.03-.4-.11-.59-.32-.78-1.21-1.16-2-.84-47.16,19.15-99.84,25.71-150.4,19,5.5-.78,11.1-1.79,16.8-3.05,27.35-6.05,53.62-16.75,79.03-27.1.59-.24.95-.8.95-1.4,0-.2-.03-.4-.11-.6-.32-.78-1.21-1.16-2-.84-25.29,10.3-51.45,20.96-78.54,26.94-9.52,2.1-18.76,3.53-27.7,4.27-1.18-.21-2.36-.41-3.54-.63,2.22-1.86,3.79-3.72,4.42-5.47-8.22-2.8-15.86-1.32-24.12-3-3.66-.75-8.01-4.9-11.47-5.06-4.45-.21-7.43,2.74-11.56,3.12-18.3,1.69-36.39-7.82-53.8-15.24-58.24-24.82-106.77-61.99-154.27-102.69,2.39-.99,4.78-1.94,7.17-2.85.64-.24,1.33-.45,2.04-.64,8.5,2.3,16.6,5.76,24.16,10.38.72.44,1.66.21,2.11-.51.15-.24.22-.51.22-.78,0-.52-.25-1.03-.73-1.33-6.02-3.67-12.37-6.66-18.99-8.92,3.51-.38,7.21-.61,10.64-1.1,0,0,0,0,0,.01,12.14-.27,24.1-3.36,37.01-3.21,16.54.19,32.1,3.43,48.54,4.41,23.85,1.43,48.02,4.25,71.59,6.71,46.26,13.72,91.33,31.75,134.25,53.74.75.39,1.68.09,2.06-.67.11-.22.17-.45.17-.68,0-.56-.3-1.11-.83-1.38-22.68-11.62-45.97-22.13-69.7-31.5,12.49,3.4,25.1,6.34,37.81,8.79.83.16,1.63-.38,1.79-1.21.02-.09.03-.18.03-.27,0-.73-.5-1.38-1.24-1.52-40.01-7.72-79.09-20.23-116.14-37.18-.77-.35-1.68-.01-2.03.76-.08.17-.11.35-.13.53-2.27-.6-4.38-1.12-6.07-1.62-39.12-11.69-81.49-12.51-122.01-9.47-.4-3.65-2.76-7.02-6-9.2,11.08-18.81,23.38-37.62,37.17-55.24,15.15-10.98,33.51-17.56,52.12-17.62.84,0,1.52-.68,1.53-1.51v-.02c0-.85-.69-1.53-1.54-1.53-16.1.05-32.01,4.82-45.96,13.02,16.2-19.65,34.38-37.55,54.91-51.97-1.33-.56-5.71-1.36-6.93-1.43-10.13,6.83-20.75,15.52-30.99,24.76,2.95-5.49,5.54-11.17,7.72-16.99.06-.17.1-.35.1-.52,0-.63-.37-1.22-.99-1.45-.79-.3-1.68.1-1.97.9-3.29,8.79-7.53,17.25-12.58,25.2-8.04,7.6-15.69,15.34-22.5,22.56-8.5,9.02-30.78,39.86-35.37,59.59-1.21-.25-2.46-.34-3.7-.24-4.81.41-16.74,8.19-21.8,10.05-1.89.7-3.75,1.43-5.6,2.16,1.94-5.62,3.63-11.32,5.02-17.07.03-.12.04-.23.04-.35,0-.7-.46-1.33-1.17-1.5-.82-.2-1.65.3-1.85,1.13-1.59,6.53-3.55,13.01-5.84,19.35-14.94,6.25-28.61,13.81-42.54,22.84-14.04,9.11-27.35,19.33-40.98,29.01l16.25-41.58c.07-.18.1-.36.11-.54,0-.62-.36-1.21-.97-1.44-.79-.31-1.68.08-1.98.87l-17.94,45.89c-7.35,5.11-14.82,10.01-22.59,14.44-8.41,4.8-16.88,10.92-25.77,13.4-5.55,1.55-10.64.33-15.45,3.63-2.58,1.78-3.27,6.31-5.13,8.62-7.79,9.71-15.68,16.48-25.47,24.41-14.18,5.43-28.47,8.35-41.28,3.1,2.27-13.94-13.27-9.33-21.9-10.28-14.53-1.6-19.95-8.83-30.4-20.73-49.08-55.91-81.77-125.44-112.05-192.58-5.58-12.38-12.82-24.64-15.63-38-1.17-5.57.17-17.3-2.57-22.05-8.27-14.34-30.18-3.35-28.07-27.03-2.83-.54-7.84-1-10.56-.42-.53,1.23.08,2.07,1.82,2.51C90.71,23.32,45.85,12,1.16,0L0,98.67ZM779.77,639.18c.35,1.99.8,3.96,1.33,5.91,1.41,10.07,3.18,20.06,4.94,29.92.7,3.92,1.4,7.83,2.07,11.74,1.31,7.59,2.59,15.54,3.59,23.71-1.91-3.21-3.76-6.44-5.53-9.72-.4-.74-1.33-1.02-2.08-.62-.74.4-1.02,1.34-.62,2.08,2.84,5.24,5.86,10.39,9.03,15.46,1.08,11.09,1.49,22.5.63,33.9-7.72-18.51-12.6-39.32-14.3-61.51-1.22-15.92-.92-32.6.93-50.86ZM410.08,330.58c-2.21,1.87-3.91,3.2-4.39,4.96-2.62,1.17-5.24,2.28-7.88,3.32l12.27-8.28ZM244.1,495.85c.26,11.86,1.18,23.6,3.28,35.08.67,3.67,1.25,6.99,2.62,9.63.04,2.11.12,4.21.25,6.31-14.46,16.19-25.16,35.93-31.2,56.94-9.78,16.08-16.71,33.88-23.43,51.2-1.56,4.01-3.11,8.02-4.7,12-3.12,7.82-6.45,15.69-10.2,23.36-4.96-52.95-1.7-105.98,9.71-157.96,17.71-9.49,39.94-22.37,53.67-36.57Z"/>
  <path class="cls-1" d="M1057.08,703.71c-2.66,1.16-4.71.95-6.35-.06,2.12,0,4.23,0,6.35.06Z"/>
</svg>