<?xml version="1.0" encoding="UTF-8"?>
<svg id="Mountain_1" data-name="Mountain 1" xmlns="http://www.w3.org/2000/svg" viewBox="0 0 3257 1845.63">
  <defs>
    <style>
      .cls-1 {
        fill: #ff8172;
      }

      .cls-2 {
        fill: #ffc679;
      }
    </style>
  </defs>
  <path class="cls-2" d="M1045.2,675.38c3.9,2.41,6.9,7.3,11.09,9.55,4.49,2.41,9.42,2.46,13.46,4.57,4.53,2.37,7.56,6.71,12.16,9.84,5.38,3.66,9.89,3.54,13.51,5.22,21.02,9.76,33.87,33.78,51.3,49.24,16.24,14.4,28.77,26.58,42.18,42.37,7.14,8.41,13.39,13.14,22.85,20.02,10.26,7.46,15.54,7.06,27.37,11.13,23.27,8,22.25,34.99,51.12,33.38.77,6.92,5.29,8.22,10.91,11.51,11.4,6.67,10.99,6.69,20.74,18.72,9.59,11.84,23.47,20.93,35.58,27.96,11.87,6.89,16.85,16.09,25.48,23.86,8.26,7.44,22.82,8.29,32.94,13.29,11.58,5.72,31.11,16.6,30.2,30.32,10.52.26,27.8,19.43,36.87,25.84,15.55,10.98,29.89,22.46,45.75,32.33,17.84,11.09,38.19,19.48,55.51,31.64,17.59,12.35,29.1,28.35,43.37,43.71,8.75,9.42,23.17,16.4,33.18,25.03,12.75,11,29.57,22.01,37.73,36.8,10.3-2.79,25.07,11.8,28,20.53,4.32,12.87-4.93,19.35-15.21,25.31-54.71,31.72-122.9,45.17-183.62,64.31-40.06,12.63-84.54,16.27-126.39,20.66-100.67,10.55-200.32,8.87-301.62,8.87-34.68,0-69.36,0-104.05,0-16.3,0-67.46,7.44-78.63-.67-9.19-6.67-4.4-33.67-4.37-42.52.15-51.92-1.49-103.81-1.49-155.73,0-33.29-1.38-65.06,7.04-97.66,4.84-18.76,12-37.01,17.94-55.5,13.39-41.64,27.48-84.79,31.17-128.43,2.23-26.32-2.7-51.72,14.52-74.5,7.01-9.28,12-19.96,19.18-28.78,17.69-21.75,40.35-35.85,44.21-62.24Z"/>
  <path class="cls-1" d="M1481.54,1197.98c-23.82-23.08-48.99-43.17-71.23-67-9.28-9.94-19.46-19.27-28.27-29.16-9.02-10.12-14.92-24.96-26.69-33.18-8.47-5.91-15.58-6.28-26.38-8.25-12.93-2.35-14.59-5.27-22.09-11.47-13.88-11.47-23.7-25.3-37.74-36.1-6.53-5.02-14.46-9.92-19.74-18.71-8.26-13.72-13-28.85-25.58-41.76-13.2-13.55-23.54-25.99-34.55-40.68-11.75-15.67-18.82-27.9-37.18-36.69-16.39-7.85-28.26-22.49-38.1-35.82-3.24-4.39-3.26-7.65-7.45-11.81-2.8-2.78-7.29-4.02-10.7-7.57-7.16-7.44-7.07-17.13-17.4-21.29-11.84-4.78-20.04,2.27-31.43-5.29-6.74-4.47-17.4-12.97-17.29-20.78,15.99-6.15-6.44-30.15,18.11-36.9,1.61-11.44-3.71-23.22-2.66-34.57.86-9.32,1.99-16.53.06-25.6-6.51,4.71-22.38,22.18-31.27,24.68-1.16.39-4.11,5.73-4.63,9.26-15.42-1.62-21.59,12.18-30.1,21.15-10.35,10.92-31.6,18.9-31.19,33.97-14.69,4.22-29.89,9.3-42.56,17.27-11.55,7.26-16.91,17.95-27.06,26.59-8.76,7.46-20,12.44-28.72,19.57-7.78,6.36-11.28,15.3-18.02,22.26-8.09,8.36-20.02,13.8-28.16,22.18-6.18,6.36-10.13,14.46-16.24,20.98-8.39,8.94-15.17,13.15-20.87,24.46-6,11.9-7.02,16.24-20.04,22.47-21.53,10.3-42.45,18.82-57.62,36.61-10.74,12.6-15.65,26.91-30.03,35.32-23.59,13.79-43.3,31.54-66.14,46.28-25.91,16.72-44.93,41.57-72.88,54.86-35.17,16.73-64.83,37.68-97.69,58.42-20.44,12.89-39.34,27.6-61.25,38.2-27.27,13.19-52.74,27.32-74.28,48.63,11.54,4.52,21.38,11.56,33.21,15.59,33.77,11.5,70.47,12.96,104.6,23.56,51.96,16.14,99.26,40.74,153.45,51.1,91.17,17.43,183.95,22.81,276.73,22.58,112.98-.28,225.98-.47,338.95.01,54.01.23,101.94-4.83,153.82-18.28,70.18-18.19,141.75-38,206.39-69.65-35.43-10-60.44-55.83-72.06-85.49Z"/>
</svg>