<?xml version="1.0" encoding="UTF-8"?>
<svg id="Moutain_2" data-name="Moutain 2" xmlns="http://www.w3.org/2000/svg" viewBox="0 0 3257 1845.63">
  <defs>
    <style>
      .cls-1 {
        fill: #ff9877;
      }

      .cls-2 {
        fill: #ffc67f;
      }
    </style>
  </defs>
  <path class="cls-2" d="M2197.37,854.8c18.91,12.32,51.32,44.84,74.46,60.57,30.22,20.55,60.07,43.33,88.47,65.69,12.56,9.89,23.57,21.5,35.68,32.29,14.19,12.65,25.64,15.22,44.94,16.13,40.61,1.92,64.19,9.63,96.6,34.76,29.58,22.94,108.86,53.43,135.47,77.69-20.06,17.43-103.05,9.18-128.81,19.74-26.19,10.73-49.67,20.56-77.47,27-30.37,7.03-57.43,12.31-89.6,13.12-56.95,1.44-114.14-.07-171.11-.07-40.48,0-80.95,0-121.43,0-15.18,0-35.5,3.35-49.65-1.5,28.51-56.91,61.89-112.57,89.34-170.29,16.35-34.37,27.97-71.31,42.16-106.14,8.76-21.49,18.75-43.12,30.95-69Z"/>
  <path class="cls-1" d="M1913.64,949.29c26.89-8.96,45.06-34.83,72.24-43.17,19.4-5.95,13.79,5.16,29.19,12.41,10.7,5.04,20.69-19.05,31.91-10,17.86,14.42,27.21,38.26,52.04,24.51,4.96-2.75,5.91-9.47,12.99-11.77,6.04-1.96,11.18-3.85,16.5-5.41,13.9-4.07,13.98-6.11,22.89-16.43,7.23-8.37,33.87-43.83,45.98-44.64,0,0,7.63,18.3,10.32,28.09,3.6,13.09,9.83,20.85,20.25,28.85,20.14,15.47,30.88,21.28,32.07,49.53.55,12.91-3.58,24.93,3.29,37.97,8.1,15.35,26.08,28.88,39.22,39.29,15.13,11.99,27.03,23.42,37.13,40.51,13.19,22.3,19.2,46.11,38.09,64.08,18.81,17.9,43.11,33.6,60.31,52.83-38.56,2.46-76.09,5.36-114.56,11.27-111.75,17.18-221.84,21.99-334.86,21.99h-310.52c-27.29,0-54.58-.01-81.87,0-11.8,0-27.01,2.69-37.18-4.13,43.2-27.96,88.68-54.08,115.84-98.1,9.17-14.86,22.1-21.13,33.55-33.33,14.28-15.21,19.5-37.37,38.85-48.22,28.45-15.95,57.23-14.52,77.08-43.35,13.51-19.62,18.1-32.95,40.2-42.29,18.52-7.83,35.99-6,49.05-10.49Z"/>
  <path class="cls-2" d="M510.3,712.53c18.64,15.03,46.2,39.12,69.5,54.57,30.43,20.18,60.5,42.55,89.09,64.51,12.64,9.71,23.74,21.11,35.94,31.71,14.29,12.42,25.82,14.95,45.26,15.84,40.9,1.88,64.65,9.46,97.29,34.14,29.79,22.53,70.12,35.97,96.92,59.79-20.2,17.11,20.5,102.38-5.45,112.75-26.38,10.54-115.57,39.72-143.57,46.05-30.59,6.91-77.05-84.31-109.45-83.51-57.35,1.41-114.95-.07-172.32-.07-40.76,0-81.52,0-122.29,0-15.29,0-35.75,3.29-50-1.47,28.72-55.89,62.32-110.55,89.97-167.23,16.46-33.75,28.16-70.03,42.46-104.23,8.82-21.1,24.37-37.43,36.66-62.85Z"/>
  <path class="cls-1" d="M253.53,756.65c27.09-8.8,16.23-9.21,43.61-17.4,19.54-5.84,13.89,5.07,29.39,12.19,10.77,4.95,15.53.06,26.82,8.95,17.98,14.16,27.41,37.57,52.41,24.07,5-2.7,5.96-9.3,13.08-11.56,6.08-1.93,11.11,2.77,16.61,1.88,14.11-2.27,18.7-9.65,27.67-19.79,7.28-8.22,34.95-42.37,47.17-42.46,1.48-.01,2.2,13.06,4.91,22.67,3.63,12.86,9.9,20.48,20.39,28.33,20.29,15.2,31.1,20.9,32.3,48.64.55,12.68-3.61,24.48,3.32,37.29,8.15,15.08,26.26,28.36,39.49,38.58,15.24,11.77,27.22,23,37.4,39.78,13.28,21.9,19.33,45.28,38.36,62.93,18.94,17.58,91.48,122.25,108.8,141.13-38.83,2.42-134.9,14.48-173.64,20.29-112.54,16.87-228.96,40.65-342.77,40.65-104.24,0-78.39,6.07-182.63,6.07-27.48,0-68.76,2.7-96.25,2.71-11.88,0-3.61-152.14.05-165.54l-.05-66.78c9.23-14.59,36.76-35.07,48.29-47.05,14.38-14.94,19.64-36.7,39.12-47.36,28.65-15.67,57.63-14.26,77.62-42.57,13.6-19.26,18.23-32.36,40.49-41.53,18.65-7.69,40.69-17.79,48.02-34.13Z"/>
</svg>