<?xml version="1.0" encoding="UTF-8"?>
<svg id="MAIN" xmlns="http://www.w3.org/2000/svg" xmlns:xlink="http://www.w3.org/1999/xlink" viewBox="0 0 1940.79 1654.81">
  <defs>
    <style>
      .cls-1 {
        fill: url(#linear-gradient);
      }
    </style>
    <linearGradient id="linear-gradient" x1="2426.05" y1="5390.59" x2="791.25" y2="66.06" gradientUnits="userSpaceOnUse">
      <stop offset="0" stop-color="#fff4e8"/>
      <stop offset=".48" stop-color="#ffd9a7"/>
      <stop offset=".79" stop-color="#fbc09d"/>
      <stop offset=".99" stop-color="#fab699"/>
    </linearGradient>
  </defs>
  <path class="cls-1" d="M1963.16,883.97h.01c-4.71-36.15-2.6-73.54-6.05-110.71-2.9-31.23-9.49-68.27-5.92-99.07-3.21-.08-6.68-.07-10.26.04v-364.34h-.26c-.1,0-.2,0-.31,0v-121.58h-1.5c2.18-3.6,4.11-7.24,4.46-11.31,1.64-19.35,9.51-38.87,12.42-58.67,2.45-16.63,2.56-36.6,10.67-52.53-19.43-1.89-49.97-2.69-56.82,6.77-15.75-1.49-37.38-.85-48.03,4.39-3.3,1.62-4.52,5.41-7.28,7.47-28.33-.61-28.49,15.36-36.52,24.54-14.01,16.01-14.62,35.82-19.82,52.86-2.7,8.85-5.57,17.67-8.5,26.49h-9.01c.85-5.55,1.9-11,3.38-16.25,3.9-13.82,7.8-29.4,3.74-43.31-8-.55-12.09-4.41-18.35-4.94-13.16-1.12-4.8,1.18-15.61,3.05-14.17,2.45-23.5.64-37.21-4.09-20.8-7.19-67.31-16.64-67.68-31.89-11.89,3.14-25.96,1.29-39.7-1.13-18.52-3.26-15.25-4.04-22.62-9.9-14.67-11.65-35.22-21.17-51.67-30.52-12.64-7.18-30.81-10.31-43.69-17.6-12.65-7.16-19.19-11.27-37.05-15.67-28.64-7.06-52.21-2.85-82.73-5.88-9.5,21.53-9.07,43.67-14.7,65.39-5.27-21.12,6.77-42.92-4.76-63.67-9.91-1.1-20.04-.38-30-1.9,10.02-7.65-11.2-8.8-23.11-9.24-17.64-.65-33.04-2.32-45.01,2.93-8.61,3.78-4.98,4.29-14.75,6.22-8.23,1.63-17.7-.38-25.35,3.51-7.82,3.98-6.98,12.43-8.62,17.81-10.79,35.34-10.76,71.27-21.48,106.35-5.08,16.63-10.98,33.74-16.95,50.73h-11.23c1.38-4.04,2.71-8.1,3.6-12.3,5.69-26.96-4.14-54.51,1.45-81.49,2.35-11.35,8.27-22.68,9.96-33.93.93-6.22,2.98-8.4-11.73-8.3-30.86.2-43.09,22.28-49.34,32.84-7.17-3.92-18.51-2.24-28.31-1.3-2.88,4.16-11.71,3.44-16.69,6.75-6.57,4.37-3.89,11.07-3.92,16.13-.11,15.42-4.59,30.71-4.42,46.18.13,11.73,1.34,23.79-1.6,35.43h-3.4c-8.62-9.52-14.62-19.73-11.48-29.7,2.19-6.93,8.69-13.59,6.52-20.77-2.06-6.8-10.99-13.28-16.13-19.7-2.8-3.49-5.27-6.68-5.63-10.38-.26-2.68,5.76-9.21,3.22-11.46-3.28-2.91-12.09-3.57-18.6-5.32-8.58-2.3-26.6-7.54-33.08-11.05-9.09-4.93-4.44-3.86-6.52-9.58-4.31-11.88-25.4-18.66-46.64-26.15-12.87-4.54-27.06-12.13-44.44-11.99-20.1.17-21.94,8.86-41.84,10.87-22.12,2.23-14.09,3.87-27.36,11.64-5.49,3.21-14.09,4.06-18.79,8.51-8.59,8.12-9.27,18.85-14.25,27.59-5.63,9.89-10.52,21.76-21.67,30.43-6.72,5.23-26.53,8.85-30.55,13.97-2.8,3.57,3.06,6.16,2.78,9.34-.33,3.8-4.3,6.86-5.03,10.37-.8,3.87,4.15,6.36-2.64,8.69-6.05,2.07-24.72-.28-33.27,1.78-17.33,4.18-32.51,13.33-57.27,13.48-11.58.07-12.62-2.03-23.27-2.98-14.8-1.32-31.34.42-45.95,1.38-24.55,1.6-26.43,3.76-26.89,11.03h-18.06c-6.08-.37-11.79-.4-16.69,0h-5.23c.41-3.91-.81-7.71-3.73-11.22-12.5-.54-25.24-.63-37.16,1.22.02,3.34-.34,6.67-.9,10h-28.04c-.01-3.54.57-7.09,1.9-10.64,3.48-9.34,16.21-16.66,12.64-26.35-30.92,6.39-15.73-5.25-20.4-10.25-3.41-3.64-14.74-5.5-18.03-9.77-2.95-3.81,3.31-10.84,1-13.22-17.14-17.69-89.48-15.18-114.48-2.42-14.49,7.4-6.7,13.94-27.06,18.42-17.45,3.85-43.14-.69-60.51,5.76-13.67,5.08-9.89,13.03-32.01,12.61-16.8-.32-21.18-10.94-45.66-5.97,1.59,14.89-10.79,27.55-11.63,41.83h-4.89c-10.12-20.07-14.21-40.66-27.51-60.41-7.65-11.37-.29-23.48-6.05-33.94-7.46-13.55-18.19-19.16-45.51-23.91-15.31-2.66-20.83-4.36-33.23-9.16-5.7-2.21-9.46-5.53-15.62-7.68-20.07-6.99-39.24-5.56-65.22-8.57-4.88-.56-21.66-1.13-26.84-1.01,3.23,4.29,11.35,7.32,21.4,9.3v24.76c-1.51,18.13.3,47.73,25.13,60.98,11.55,6.17,27.67,12.4,34.79,19.77,5.47,5.65-1.89,6.93,7.96,11.35,7.09,3.19,20.43,4.75,29.96,4.62v13.89H-.73v407.95h.39v154.96c-10.19-3.55-16.31-7.03-27.05-14.04-6.35-4.14-10.55-10.39-17.42-14.42-22.38-13.13-43.74-10.45-72.72-16.1-5.44-1.06-24.14-2.13-29.92-1.89,3.6,8.05,12.65,13.75,23.86,17.47v46.5c-1.68,34.04.34,89.63,28.01,114.52,12.88,11.58,30.84,23.3,38.78,37.12,6.09,10.62-2.11,13.01,8.87,21.32,7.9,5.99,22.77,8.91,33.39,8.68v273.63c.12,19.12,3.59,37.96,3.48,56.73,23.95-18.35,80.05-27.87,111.2-22.6-6.02-42.62,61.35-21.97,85.28-20.86,10.37.48,12.54-9.16,25.06-4.24,5.13,2.02,10.93,16.42,14.17,20.24,14.72,17.3,33.4,32.8,46.14,50.8,28.74-1.8,64.5-9.28,93.45-2.57,27.59,6.4,34.37,25.67,57.03,34.98,2.57-9.71,1.88-18.4-8.32-23.2,5.44-6.53,14.08-12.77,24.27-18.28,17.89,7.5,30.73,21.61,49.85,27.8,16.3,5.27,30.56-.93,46.45,3.73,10.76,3.15,24.77,13.71,32.28,20.23,17.75,15.41,26.96,32.7,50.08,44.6,12,6.18,23.38,9.62,35.24,13.43,25.74,8.25,59.45,13.14,88.08,8.27,6.59,14.53,30.41,13.17,44.43,21.54,21.25,12.68,21.88,39.4,20.6,57.99-1.84,26.68,2.21,48.63,8.53,74.97,5.6,23.33,4.32,58.79,21.32,79.34,3.07-33.02,6.36-67.93,4.55-101.12-1.02-18.78-8.96-45.73-.59-63.97,4.63-10.08,19.18-16.18,22.74-27.24,3.79-11.81-4.38-18.71-8.67-29.82-11.94-30.88,14.71-55.63,16.71-85.58,1.52-22.76,2.19-35.17,32.28-44.38,21.65-6.62,50.95-19.07,74.42-7.32,7.09,3.56,4.53,8.45,14.81,12.29,15.25,5.71,28.23-.32,35.64,15.26,6.12,12.88,5.58,24.68,14.48,38.01,8.53,12.78,9.26,21.01,10.47,35.02,32.59.82,39.12,13.1,44.57,35.54,7.06,29.07,22.46,61.34,21.86,90.85-.12,5.98-5.16,9.68-4.28,16.39,1.5,11.41,12.99,27.39,18.22,38.32,13.87,28.95,19.93,56.69,30.75,85.64,19.27.2,12.92-38.07,15.77-48.78,5.7-21.43,24.98-33.11,36.55-6.63-3.67-7.92-5.98-23.53,7.93-26.82,15.79-3.73,23.14,14.96,35.75,19.69,23.31,8.75,29.92-5.75,46.61-13.9,15.17-7.41,29.1-5.63,46.54-6.33,7.8-24.41,21.54-33.97,44.49-51.5,21.46-16.39,6.49-39.16,9.81-61.59,3.44-23.24,13.73-45.58,23.36-67.67,4.4-10.09,15.77-24.19,13.73-35.15-1.11-5.99-10-12.46-11.81-19.9-5.84-24.09,12.57-45.19,28.31-64.78,18.51,5.01,26.49,8.01,39.85,18.94,31.04-23.28,62.94-29.49,109.05-32.72-23.96-8-3.7-26.03,1.58-35.34,11.13-19.64,8.74-43.88,34.3-59.73,16.64-10.32,40.98-13.19,62.29-11.88,31.54,1.94,10.2,3.75,19,16.93,4.95,7.41,29.93,12.83,44.17,10.42-5.8-19.46,31.29-16.55,48.57-16.86-1.99-20.82,20.81-57.69,38.58-73.12,24.59-21.36,62.72-8.85,94.67-11.23-2.79-7.64-8.54-13.57-13.75-20.05h3.44v-42.27s.01,0,.02,0v-19.31c4.7-6.46,9.92-13.03,14.64-20.47,12.17-19.18,2.21-32.67,3.95-52.51,1.14-12.99,5.39-24.73,3.63-38.28Z"/>
</svg>