<?xml version="1.0" encoding="UTF-8"?>
<svg id="MAIN" xmlns="http://www.w3.org/2000/svg" xmlns:xlink="http://www.w3.org/1999/xlink" viewBox="0 0 1920 1088">
  <defs>
    <style>
      .cls-1 {
        fill: url(#linear-gradient-2);
      }

      .cls-2 {
        fill: url(#linear-gradient);
      }
    </style>
    <linearGradient id="linear-gradient" x1="919.95" y1="2007.6" x2="1333.1" y2="-198.23" gradientUnits="userSpaceOnUse">
      <stop offset="0" stop-color="#fff4e8"/>
      <stop offset=".41" stop-color="#ffe5c6"/>
      <stop offset=".77" stop-color="#ffdcaf"/>
      <stop offset="1" stop-color="#ffd9a7"/>
    </linearGradient>
    <linearGradient id="linear-gradient-2" x1="569.44" y1="615.7" x2="577.55" y2="615.7" gradientUnits="userSpaceOnUse">
      <stop offset="0" stop-color="#fff4e8"/>
      <stop offset=".41" stop-color="#ffe5c6"/>
      <stop offset=".77" stop-color="#ffdcaf"/>
      <stop offset="1" stop-color="#ffd9a7"/>
    </linearGradient>
  </defs>
  <path class="cls-2" d="M1918.52,0c-57.1,15.34-114.41,29.8-171.96,43.36,2.22-.56,3-1.63,2.32-3.21-3.47-.75-9.87-.15-13.49.53,2.7,30.25-25.3,16.21-35.87,34.53-3.5,6.06-1.79,21.06-3.28,28.17-3.58,17.07-12.84,32.74-19.97,48.55-38.68,85.78-80.45,174.61-143.15,246.04-13.35,15.21-20.28,24.44-38.84,26.49-11.02,1.22-30.88-4.68-27.98,13.13-16.37,6.7-34.63,2.98-52.75-3.96-12.5-10.13-22.59-18.78-32.54-31.19-2.37-2.95-3.25-8.74-6.55-11.01-6.14-4.23-12.65-2.66-19.73-4.64-11.36-3.17-22.18-10.99-32.92-17.12-9.92-5.66-19.47-11.92-28.86-18.45l-22.92-58.63c-.39-1.01-1.53-1.5-2.54-1.11-.78.3-1.25,1.06-1.25,1.85,0,.23.05.46.14.69l20.77,53.13c-17.41-12.36-34.42-25.43-52.36-37.06-17.8-11.55-35.26-21.2-54.35-29.19-2.93-8.11-5.44-16.38-7.47-24.73-.26-1.05-1.31-1.7-2.36-1.44-.9.22-1.51,1.03-1.5,1.92,0,.15.02.29.06.44,1.79,7.35,3.94,14.64,6.42,21.81-2.36-.94-4.73-1.87-7.15-2.76-6.47-2.38-21.71-12.32-27.86-12.85-1.59-.14-3.18-.02-4.73.3-5.86-25.2-34.33-64.61-45.19-76.13-8.7-9.23-18.48-19.12-28.75-28.83-6.44-10.16-11.86-20.96-16.07-32.2-.38-1.01-1.51-1.52-2.52-1.15-.79.3-1.28,1.05-1.27,1.86,0,.22.04.45.13.66,2.79,7.44,6.1,14.69,9.87,21.7-13.08-11.81-26.64-22.91-39.59-31.64-1.56.09-7.15,1.1-8.85,1.82,26.23,18.42,49.45,41.29,70.15,66.4-17.82-10.48-38.16-16.57-58.72-16.64-1.08,0-1.96.87-1.96,1.95v.03c.01,1.07.88,1.93,1.95,1.93,23.78.08,47.23,8.48,66.59,22.51,17.62,22.52,33.34,46.54,47.49,70.58-4.14,2.79-7.15,7.1-7.66,11.76-51.77-3.89-105.89-2.85-155.88,12.09-2.16.65-4.86,1.31-7.76,2.07-.02-.23-.06-.46-.16-.68-.45-.98-1.61-1.42-2.59-.97-47.34,21.66-97.27,37.64-148.39,47.5-.94.18-1.6,1.01-1.59,1.94,0,.12.01.23.03.35.21,1.06,1.23,1.76,2.29,1.55,16.24-3.13,32.35-6.88,48.31-11.23-30.33,11.97-60.07,25.39-89.05,40.24-.68.35-1.07,1.05-1.07,1.77,0,.29.07.59.22.87.49.96,1.67,1.34,2.63.85,54.84-28.1,112.42-51.13,171.53-68.66,30.12-3.14,61-6.74,91.47-8.57,21-1.26,40.88-5.39,62.01-5.64,16.49-.19,31.77,3.76,47.28,4.1,0,0,0-.01,0-.02,4.38.63,9.11.92,13.59,1.41-8.46,2.89-16.58,6.7-24.27,11.39-.61.37-.94,1.03-.94,1.7,0,.34.1.68.29,1,.56.92,1.77,1.21,2.69.65,9.65-5.89,20.01-10.32,30.87-13.26.9.24,1.78.5,2.6.81,3.06,1.16,6.11,2.38,9.16,3.64-60.69,52-122.7,99.49-197.11,131.21-22.24,9.48-45.36,21.63-68.73,19.47-5.28-.49-9.08-4.26-14.77-3.99-4.41.21-9.97,5.52-14.65,6.47-10.55,2.15-20.32.25-30.82,3.84.8,2.23,2.82,4.61,5.65,6.99-1.51.28-3.02.54-4.53.8-11.42-.95-23.22-2.76-35.39-5.45-34.61-7.65-68.03-21.26-100.34-34.43-1-.41-2.14.07-2.55,1.07-.1.25-.15.51-.14.76,0,.76.47,1.48,1.22,1.79,32.47,13.23,66.03,26.9,100.97,34.62,7.28,1.61,14.44,2.91,21.47,3.9-64.59,8.57-131.9.19-192.15-24.28-1-.41-2.14.07-2.55,1.08-.1.25-.15.51-.14.76,0,.77.47,1.49,1.22,1.79,65.39,26.55,138.99,34.36,208.6,22.32,4.08.33,8.11.54,12.09.66,14.1,8.4,35.34,15.47,45.61,14.49,3.8-.36,7.06-2.45,10.31-4.47-21.42,36.53-43.04,73.32-66.07,108.9-34.92,8.11-71.03,22.64-103.36,38.71-30.3-7.56-60.59-10.79-92.78-14.65-22.63-2.72-48.57-15.18-70.46-14.84-1.73,5.65-3.78,11.99-7.78,14.47,51.85.16,104.74,13.43,155.67,22.91-.12.06-.25.13-.37.19-8.12,4.32-63.94,36.37-84.93,59.31-16.85,6.7-34.2,12.6-52.26,14.72-26.27,3.07-50.53-3.19-66.55-17.18-.82-.71-2.05-.63-2.76.19-.33.38-.49.84-.48,1.31,0,.54.23,1.07.67,1.45,16.86,14.72,42.22,21.33,69.58,18.12,16.26-1.9,31.83-6.77,46.95-12.52-2.68,4.05-3.77,7.64-2.67,10.49-7.69,8.11-15.06,17.54-22.2,28.43-9.85,14.99-18.27,31.13-26.41,46.74-2.25,4.31-4.5,8.62-6.78,12.91-4.75,8.95-10.06,18.58-15.93,28.5-11.07,5.61-22.52,10.96-34.78,13.14-15.27,2.72-29.99-.55-39.36-8.75-.81-.71-2.05-.63-2.76.19-.33.38-.49.85-.48,1.31,0,.54.23,1.07.67,1.45,10.41,9.1,25.95,12.62,42.63,9.65,10.72-1.91,20.71-6.07,30.34-10.75-14.74,24.13-32.98,49.48-55.67,70.69-.42.39-.63.92-.62,1.45,0,.47.18.94.53,1.31.74.79,1.98.83,2.77.09,24.67-23.07,44.11-50.89,59.53-76.81,1.32-.67,2.64-1.35,3.95-2.02.96-.49,1.35-1.67.85-2.63-.3-.59-.86-.92-1.47-1.01,4.82-8.32,9.24-16.39,13.27-23.97,2.28-4.3,4.54-8.62,6.79-12.94,8.1-15.52,16.47-31.57,26.21-46.4,6.9-10.51,14-19.63,21.4-27.48.24.18.47.35.74.52,22.13-15.16,41.98-34.55,65.66-48.13,42.32-24.28,82.65-42.14,128.07-56.1-1.55,2.3-3.08,4.62-4.64,6.9-9.7,14.12-20.4,28.71-30.17,43.61-45.66,33.61-97.2,59.86-151.1,76.7-.85.26-1.38,1.05-1.37,1.89,0,.19.03.38.09.56.32,1.03,1.42,1.61,2.45,1.28,49.53-15.48,97.08-38.85,139.97-68.54-6.5,6.8-12.89,13.69-19.14,20.7l-80.67,76.63c-28.19,26.78-57.35,54.47-93.11,71.4-.71.34-1.13,1.05-1.12,1.79,0,.27.06.55.19.81.46.98,1.63,1.39,2.61.93,36.33-17.19,65.71-45.1,94.13-72.1l4.33-4.11c-48.38,51.55-91.03,108.3-127.03,169.21-.19.32-.28.67-.27,1.02,0,.66.35,1.3.96,1.66.93.55,2.13.24,2.68-.69,42.54-71.96,94.36-138.14,154.03-196.7.77-.76.78-2,.02-2.77-.11-.11-.25-.17-.37-.25l19.79-18.8c-38.49,47.42-71.43,99.07-98.31,154.39-.14.28-.2.58-.2.88,0,.72.41,1.4,1.1,1.74.97.47,2.14.07,2.62-.9,32.09-66.06,72.85-126.88,121.45-181.43l11.64-11.06c-1.66,3.06-3.24,6.14-4.72,9.22,1.32,1.89,4.02,4.38,5.94,5.44,2.4-3.37,4.85-6.73,7.32-10.07l-15.06,30.11c-.15.29-.21.6-.21.9,0,.71.4,1.39,1.08,1.73.97.48,2.14.09,2.63-.87l24.55-49.06c1.34-1.74,2.67-3.49,4.01-5.23-5.12,84.5-28.53,168.67-67.81,243.63-.16.3-.23.62-.22.93,0,.7.39,1.37,1.05,1.71.96.5,2.14.13,2.64-.83,40.07-76.46,63.74-162.43,68.46-248.62.02-.56-.2-1.08-.56-1.46,5.3-6.89,10.6-13.81,15.8-20.79,1.62-1.38,3.27-2.74,4.87-4.14.81-.71.9-1.94.19-2.75,6.58-9.03,12.91-18.23,18.82-27.67,26.07,55.2,43.61,113.97,59.48,172.92,1.28,4.76,2.08,13.67,4.26,21.15-.58,6.3-1.33,12.6-2.21,18.87-1.8,6.49-4.41,12.75-7.83,18.57-9.94,16.92-26.44,29.82-45.25,35.41-.86.25-1.41,1.05-1.4,1.9,0,.18.03.36.08.54.31,1.04,1.4,1.63,2.43,1.32,19.75-5.86,37.07-19.41,47.51-37.18.62-1.06,1.21-2.13,1.78-3.21-1.17,7.03-2.41,14.02-3.65,20.95-.89,5.01-1.79,10.02-2.65,15.02-2.13,12.34-4.21,25.41-5.56,38.86-42.28,67.12-107.08,121.03-180.86,149.74-.78.3-1.26,1.06-1.25,1.85,0,.23.05.46.13.69.39,1.01,1.53,1.51,2.53,1.11,72.23-28.11,135.95-80.13,178.7-145.03-.57,7.57-.87,15.23-.78,22.94.08,6.88.48,13.8,1.26,20.71-4.3,9.31-9.17,18.12-14.63,26.34-.23.34-.33.72-.33,1.1,0,.63.31,1.24.87,1.61.9.6,2.12.35,2.71-.55,4.5-6.77,8.59-13.95,12.32-21.45.64,4.14,1.41,8.28,2.37,12.4.25,1.05,1.3,1.71,2.35,1.46,1.05-.25,1.7-1.3,1.46-2.35-1.39-5.96-2.39-11.96-3.1-17.98,11.66-25.61,18.98-54.89,21.39-86.27,1.58-20.58,1.19-42.11-1.2-65.69,1.81,1,3.95,1.32,6.54.69-.38-16.22-3.54-32.84-8.07-49.5,30.36,19.96,55.17,47.31,72.04,79.62,18.3,35.05,26.51,74.44,23.73,113.88-.07,1.07.74,2.01,1.81,2.09,1.08.08,2.01-.74,2.09-1.81,2.83-40.17-5.53-80.27-24.17-115.96-17.87-34.22-44.47-62.97-77.1-83.48-8.51-29.45-20.77-58.93-29.02-86.46-6.5-21.68-12.75-39.71-25.26-58.64-1.94-2.93-5.06-11.26-8.16-15.1,3.67-6.28,7.16-12.68,10.33-19.25,13.74-28.39,30.21-48.47,50.23-71.35,9.8-11.2,20.91-22.59,22.43-33.65.16-.06.32-.1.48-.17,9.89-3.9,17.85-14.89,26.81-20.8,10.62-7,22.86-10.9,34.15-16.72,31.54-16.26,65.96-30.23,96.31-49.4,28.65-18.09,50.38-44.29,79.06-62.28,9.24-5.79,17.06-7.81,26.38-8.9,42.7,22.67,83.56,53.42,118.88,84.16,1.48,1.29,2.93,2.51,4.36,3.66-21.65-2.2-44.03.61-64.31,8.21-.79.3-1.28,1.05-1.27,1.86,0,.22.04.44.13.66.38,1.01,1.51,1.53,2.52,1.15,21.8-8.17,46.1-10.63,69.18-7.12,6.28,4.46,12.16,7.68,18.13,10.18.11.28.22.56.33.84-9.21-1.13-18.64-.47-27.64,2.1-.87.25-1.43,1.04-1.42,1.9,0,.17.03.34.08.51.3,1.04,1.38,1.64,2.42,1.35,9.29-2.65,19.08-3.16,28.54-1.64,2.37,4.29,5.78,8.05,11.92,11.77,29.19,17.69,62.13,32.18,92.54,49.3-24.65,27.33-52.43,54.61-86.05,70.24-7.25,3.37-14.78,2.2-19.42,8.99-2.45,3.58-2.93,9.61-3.2,15.71-57.95,33.1-132.28,48.76-197.45,62.31-1.11-.09-2.22-.17-3.32-.29-.96-.11-1.8.51-2.06,1.41-7.11,1.47-14.32,2.79-21.57,4-.83-.69-2.06-.57-2.75.26-.07.08-.14.16-.21.24-24.7,4-49.97,6.57-74.45,8.18,3.58,11.3,31.1,10.52,60.96,6.32-19,18.35-41.8,32.43-66.9,41.16-31.46,10.94-65.31,13.08-97.89,6.18-1.06-.22-2.1.45-2.32,1.51-.03.14-.04.29-.04.43.01.9.64,1.7,1.55,1.89,33.28,7.05,67.86,4.86,99.99-6.31,27.33-9.51,51.99-25.23,72.12-45.82,30.82-4.76,62.45-12.45,71.69-13.74,29.8-4.19,58.73-15.07,87.73-21.07,11.78-2.44,45.96-16.05,62.5-13.41-14.04,30.04-29.33,58.93-46.78,86.9-9.48,8.21-20.05,15-31.47,20.17-.73.33-1.16,1.05-1.15,1.81,0,.26.06.53.17.78.45.98,1.61,1.42,2.59.98,8.28-3.75,16.12-8.33,23.44-13.65-7.58,11.69-15.54,23.23-24.01,34.61-5.66,7.61-18.14,19.23-3.91,22.44-7.6,12.93-14.43,26.31-20.38,40.07-.11.26-.16.53-.16.8,0,.75.45,1.46,1.18,1.77.99.43,2.14-.03,2.57-1.02,11.12-25.72,25.26-50.14,42.03-72.59.34-.46.44-1.02.34-1.54,9.32-13.37,18.58-26.85,27.7-40.22-.16,3.98-.23,7.96-.19,11.94.18,15.71,2,31.39,5.45,46.89.23,1.06,1.28,1.72,2.33,1.49,1.06-.23,1.72-1.28,1.49-2.33-4.65-20.88-6.25-42.78-4.79-64.28,3.17-4.66,6.33-9.3,9.45-13.9,17.39-25.64,44.97-57.11,49.77-89.3,4.57-5.11,8.06-11.18,9.4-16.27,22.41-11.19,45.43-30.63,65.89-45.59,9.85-7.2,22.41-16.53,31.91-25.9,6.06,2.4,11.16,1.82,20.1-3.75,9.77-6.08,21.19-11.39,30.87-18.41,10.42-7.56,20.81-16.75,30.91-26.78.87,7.09,2.48,14.42,3.25,20.42,5.61,43.52,11.68,87.56,15.61,131.66-5.64,46.98-23.25,94.53-51.5,138.58-27.81,43.37-66.4,84.27-114.68,121.55-.51.39-.77.98-.76,1.57,0,.41.14.82.41,1.17.66.86,1.89,1.01,2.75.35,48.64-37.56,87.53-78.78,115.59-122.54,25.23-39.35,42.09-81.48,49.61-123.57,1.95,25.93,3.06,51.85,2.74,77.68,1.13-.19,2.13-.45,3.07-.74.26,8.86.46,17.76.57,26.67-.02.09-.04.19-.06.28-.03.14-.04.29-.04.43,0,.2.05.4.11.59.13,12.23.07,24.48-.29,36.72-37.9,85.24-97.26,159.53-172.17,215.3-.52.39-.79.99-.79,1.59,0,.4.13.8.39,1.14.65.87,1.87,1.05,2.74.4,72.89-54.27,131.16-125.95,169.45-208.17-.44,10.17-1.1,20.32-2.07,30.42-2.33,24.38-6.35,47.21-11.98,68.41-.55-.5-1.35-.67-2.07-.36-.75.32-1.21,1.06-1.2,1.83,0,.25.05.5.15.74.52,1.23,1.01,2.46,1.51,3.69,0,.02,0,.03-.01.05-.41.37-.66.9-.65,1.46,0,.15.04.31.08.47-6.18,21.3-14.05,40.87-23.61,58.54-.16.3-.24.63-.24.95,0,.69.38,1.35,1.03,1.7.95.51,2.14.16,2.65-.79,2.61-4.82,5.08-9.78,7.45-14.87.4,58.94-29.73,117.77-78.12,151.47-.55.38-.85,1-.84,1.63,0,.38.12.76.35,1.09.62.89,1.84,1.11,2.72.49,51.42-35.81,82.63-99.36,79.61-161.97-.01-.25-.08-.49-.18-.7,4.23-9.92,8.03-20.3,11.37-31.16,9.33,27.55,15.04,56.35,17.13,85.42.45,32.88-5.23,65.85-17.09,96.68-.39,1.01.12,2.14,1.12,2.53,1.01.39,2.14-.12,2.53-1.12,6.14-15.95,10.64-32.47,13.52-49.24-1.53,22.27-5.2,44.38-11.04,65.89-.28,1.04.33,2.12,1.38,2.4,1.04.28,2.12-.33,2.4-1.38,10.21-37.58,13.87-76.98,11.09-115.91-.45-32.02-6.64-63.97-18.52-93.84,6.36-22.72,10.82-47.34,13.35-73.72,1.28-13.34,2.03-26.74,2.44-40.16,1.24-2.8,2.45-5.6,3.65-8.42.42-1-.04-2.14-1.04-2.56-.88-.37-1.85-.02-2.36.74.16-9.45.17-18.89.06-28.32,1.37-6.65,2.35-13.39,2.97-20.19,13.8,16.16,24.69,34.95,32.14,55.01-.65-.79-1.8-.96-2.64-.35-.54.39-.82,1-.81,1.61,0,.39.12.78.37,1.12,2.7,3.73,5.22,7.58,7.63,11.51,5.05,17.78,7.45,36.27,6.83,54.6,0,1.07.81,1.99,1.89,2.02,1.08.04,1.99-.81,2.02-1.89.47-14.12-.8-28.33-3.67-42.25,8.91,16.95,15.94,35.03,22.8,52.72,1.99,5.14,3.99,10.27,6.02,15.37,4.77,11.96,9.93,24.03,15.93,35.64-.31,2.94-.6,5.88-.95,8.82-.14,1.07.64,2.05,1.71,2.17,1.07.13,2.05-.64,2.17-1.71.12-1.05.22-2.1.34-3.16,9.29,16.82,20.57,32.44,35.32,45.05.82.7,2.06.61,2.76-.22.7-.82.61-2.06-.22-2.76-15.78-13.49-27.53-30.61-37.13-48.98,6.9-67,3.56-134.14-9.95-200.04l11.9,23.97c.48.97,1.66,1.36,2.62.88.97-.48,1.36-1.66.88-2.62l-12.98-26.14c1.31.69,2.58,1.35,3.82,2.01,20.29,35.69,59.13,59.84,100.2,61.93,1.08.06,2-.78,2.05-1.86.05-1.1-.78-2-1.86-2.05-37.62-1.91-73.31-22.95-93.68-54.49,3.68,1.94,6.88,3.65,9.44,5.11,9.8,5.59,84.07,46.38,85.49,25.46-68.9-16.65-129.99-70.13-182.52-118.17-1.21-34.34-4.54-69.01-2.73-102.32,2.15-39.69,10.99-74.19,14.7-111.49,32.08-42.44,62.44-86.34,92.98-130.03,8.58-12.27,17.42-24.34,26.11-36.51,19.51,33.79,36.88,68.66,50.98,104.78,8.14,63.98-2,130.12-29.27,188.63-.13.27-.19.56-.18.85,0,.73.43,1.42,1.13,1.75.98.46,2.14.03,2.6-.95,25.46-54.61,36.15-115.79,31.19-175.76,10.8,29.82,19.31,60.5,24.9,92.14,2.8.04,5.12-.37,7.59-1.87,4.45-36.38-10.71-82.81-21.96-117.17-10.67-32.59-24.27-63.23-41.17-93.26-1.8-3.2-5.78-12.28-10.65-20.93,4.78-7.12,9.43-14.32,13.86-21.69,6.51-10.85,13.34-37.64,22.74-45.26,1.27-1.03.88-2,1.48-3.37,21.09-.16,36.53-6.63,58.15-5.88,12.82.45,25.79-.3,38.61-.45,6.9-.08,18.94,1.39,31.14,2.36l-1.48-126.07ZM924.94,881.62c-2.17,28.35-8.41,54.94-18.27,78.58-1.11-14.56-.58-29.14.8-43.31,4.05-6.47,7.91-13.05,11.54-19.75.51-.95.16-2.14-.79-2.65-.95-.51-2.14-.16-2.65.79-2.27,4.19-4.63,8.32-7.07,12.42,1.28-10.43,2.91-20.59,4.58-30.29.86-5,1.75-9.99,2.65-15,2.25-12.59,4.52-25.36,6.32-38.23.68-2.49,1.25-5.01,1.7-7.55,2.37,23.33,2.75,44.64,1.19,64.98ZM1411.74,432.94c-3.37-1.33-6.73-2.76-10.07-4.25-.61-2.25-2.78-3.95-5.61-6.34l15.68,10.58ZM1676.71,680.23c14.58,66.41,18.75,134.16,12.41,201.81-4.79-9.79-9.05-19.85-13.04-29.84-2.03-5.09-4.02-10.21-6.01-15.33-8.59-22.13-17.43-44.88-29.93-65.42-7.72-26.84-21.39-52.06-39.86-72.75.16-2.68.27-5.37.31-8.06,1.76-3.37,2.49-7.61,3.35-12.3,2.69-14.68,3.87-29.67,4.19-44.82,17.55,18.13,45.95,34.59,68.58,46.72Z"/>
  <path class="cls-1" d="M569.44,615.23c3.4,1.48,6.02,1.22,8.11-.07-2.7,0-5.41,0-8.11.07Z"/>
</svg>